#N canvas 423 60 356 471 10;
#X obj 37 33 inlet~;
#X obj 156 33 inlet~;
#X obj 105 200 -;
#X obj 105 222 + 100;
#X obj 105 243 dbtorms;
#X obj 105 293 vline~;
#X obj 37 378 *~;
#X obj 37 416 outlet~;
#X obj 169 214 samplerate~;
#X obj 169 192 loadbang;
#X obj 169 235 expr 256/$f1*1000;
#X obj 105 270 pack f f;
#N canvas 459 248 450 300 altered.level 0;
#X obj 72 73 inlet~;
#X obj 192 78 inlet~;
#X obj 68 186 outlet~;
#X obj 168 186 outlet~;
#X obj 258 185 outlet;
#X obj 110 136 env~ 1024 256;
#X connect 0 0 2 0;
#X connect 0 0 5 0;
#X connect 1 0 3 0;
#X connect 5 0 4 0;
#X restore 52 94 pd altered.level;
#N canvas 0 22 450 300 reverence.level 0;
#X obj 107 55 inlet~;
#X obj 177 55 inlet~;
#X obj 257 55 inlet;
#X obj 106 141 outlet~;
#X obj 196 141 outlet;
#X obj 266 141 outlet;
#X obj 186 95 env~ 1024 256;
#X connect 0 0 3 0;
#X connect 1 0 6 0;
#X connect 2 0 5 0;
#X connect 6 0 4 0;
#X restore 53 138 pd reverence.level;
#X connect 0 0 6 0;
#X connect 0 0 12 0;
#X connect 1 0 12 1;
#X connect 2 0 3 0;
#X connect 3 0 4 0;
#X connect 4 0 11 0;
#X connect 5 0 6 1;
#X connect 6 0 7 0;
#X connect 8 0 10 0;
#X connect 9 0 8 0;
#X connect 10 0 11 1;
#X connect 11 0 5 0;
#X connect 12 0 13 0;
#X connect 12 1 13 1;
#X connect 12 2 13 2;
#X connect 13 0 6 0;
#X connect 13 1 2 0;
#X connect 13 2 2 1;
