#N canvas 198 121 450 300 10;
#X obj 35 31 inlet switch;
#X obj 35 165 outlet~ ramp;
#X obj 35 116 line~;
#X obj 153 70 sel 1 0;
#X msg 141 116 1;
#X msg 172 116 0;
#X obj 35 95 pack \$1 10;
#X obj 172 95 del 10;
#X obj 172 161 outlet;
#X connect 0 0 3 0;
#X connect 0 0 6 0;
#X connect 2 0 1 0;
#X connect 3 0 4 0;
#X connect 3 1 7 0;
#X connect 4 0 8 0;
#X connect 5 0 8 0;
#X connect 6 0 2 0;
#X connect 7 0 5 0;
