#N canvas 88 51 677 566 10;
#X obj 503 29 inlet~;
#X floatatom 278 242 5 0 0 1 reduction - -, f 5;
#X floatatom 429 84 5 0 0 1 threshold/reference - -, f 5;
#X obj 264 214 expr (($f1 - $f3) / $f2) - $f1 + $f3;
#X floatatom 377 187 5 0 0 1 limit_factor - -, f 5;
#X obj 370 141 loadbang;
#X floatatom 267 194 5 0 0 0 - - -, f 5;
#X obj 264 337 dbtorms;
#X obj 264 286 expr 100 + $f1;
#X obj 192 534 outlet~;
#X obj 207 430 line~;
#X obj 207 178 moses;
#X msg 207 263 1;
#X obj 207 203 bng 15 250 50 0 empty empty empty 0 -6 0 8 -262144 -1
-1;
#X obj 429 39 loadbang;
#X msg 264 371 \$1 10;
#X obj 192 507 *~;
#X msg 429 63 90;
#X obj 207 127 env~ 64;
#X msg 296 45 100;
#X obj 296 25 loadbang;
#X msg 370 166 10;
#X text 157 313 release;
#X msg 207 311 \$1 200;
#X obj 33 29 inlet~;
#X obj 33 170 delwrite~ compLeft 1000;
#X obj 33 220 delread~ compLeft;
#X obj 503 170 delwrite~ compRight 1000;
#X obj 503 220 delread~ compRight;
#X text 220 373 attack;
#X obj 302 534 outlet~;
#X obj 302 507 *~;
#X connect 0 0 18 0;
#X connect 0 0 27 0;
#X connect 2 0 3 2;
#X connect 2 0 11 1;
#X connect 3 0 1 0;
#X connect 3 0 8 0;
#X connect 4 0 3 1;
#X connect 5 0 21 0;
#X connect 7 0 15 0;
#X connect 8 0 7 0;
#X connect 10 0 16 1;
#X connect 10 0 31 0;
#X connect 11 0 13 0;
#X connect 11 1 6 0;
#X connect 11 1 3 0;
#X connect 12 0 23 0;
#X connect 13 0 12 0;
#X connect 14 0 17 0;
#X connect 15 0 10 0;
#X connect 16 0 9 0;
#X connect 17 0 2 0;
#X connect 18 0 11 0;
#X connect 19 0 26 0;
#X connect 19 0 28 0;
#X connect 20 0 19 0;
#X connect 21 0 3 1;
#X connect 23 0 10 0;
#X connect 24 0 25 0;
#X connect 24 0 18 0;
#X connect 26 0 16 0;
#X connect 28 0 31 1;
#X connect 31 0 30 0;
