#N canvas 528 316 372 258 10;
#X obj 69 34 inlet~;
#X obj 69 88 / 100;
#X obj 69 224 s toGUI;
#X obj 277 46 inlet;
#X obj 277 142 switch~;
#X obj 286 83 loadbang;
#X obj 69 175 pack f s;
#X obj 114 148 symbol \$1;
#X msg 69 203 list \$2 \$1;
#X obj 69 67 env~ 4096;
#X msg 286 112 1;
#X obj 172 42 r monitors;
#X obj 69 115 spigot;
#X connect 0 0 9 0;
#X connect 1 0 12 0;
#X connect 3 0 4 0;
#X connect 5 0 7 0;
#X connect 5 0 10 0;
#X connect 6 0 8 0;
#X connect 7 0 6 1;
#X connect 8 0 2 0;
#X connect 9 0 1 0;
#X connect 10 0 4 0;
#X connect 11 0 4 0;
#X connect 11 0 12 1;
#X connect 12 0 6 0;
