#N canvas 399 130 450 300 10;
#X obj 45 57 inlet;
#X obj 72 200 outlet;
#X obj 45 219 outlet;
#X obj 72 169 int;
#X obj 45 108 t f f;
#X obj 115 23 loadbang;
#X obj 107 85 v gridSizeX;
#X obj 115 104 v gridSizeY;
#X obj 45 148 %;
#X obj 72 148 /;
#X obj 115 44 del 10;
#X floatatom 92 232 5 0 0 0 - - -, f 5;
#X floatatom 132 234 5 0 0 0 - - -, f 5;
#X obj 45 78 - 1;
#X connect 0 0 13 0;
#X connect 3 0 1 0;
#X connect 3 0 12 0;
#X connect 4 0 8 0;
#X connect 4 1 9 0;
#X connect 5 0 10 0;
#X connect 6 0 8 1;
#X connect 7 0 9 1;
#X connect 8 0 2 0;
#X connect 8 0 11 0;
#X connect 9 0 3 0;
#X connect 10 0 7 0;
#X connect 10 0 6 0;
#X connect 13 0 4 0;
