#N canvas 16 16 527 518 10;
#X obj 9 7 cnv 15 500 500 empty empty empty 20 12 0 14 -244723 -66577
0;
#N canvas 82 42 407 443 select 0;
#X obj 40 96 unpack f f f;
#X obj 76 159 spigot;
#X obj 99 237 s toGUI;
#X text 157 265 remember current;
#X obj 40 398 s sampleSelect;
#N canvas 88 37 453 557 playback 0;
#X obj 31 466 s toGUI;
#X obj 31 20 inlet;
#X obj 168 66 tabread /sampleLoop;
#X obj 168 126 tabread /sampleVolume;
#X obj 168 186 tabread /sampleReverse;
#X obj 168 306 tabread /sampleSpeed;
#X obj 168 366 tabread /randomSpeed;
#X msg 168 90 list /sampleLoop set \$1;
#X msg 168 150 list /sampleVolume set \$1;
#X msg 168 210 list /sampleReverse set \$1;
#X msg 168 330 list /sampleSpeed set \$1;
#X msg 168 390 list /randomSpeed set \$1;
#X obj 168 426 tabread /samplePan;
#X msg 168 450 list /samplePan set \$1;
#X obj 168 246 tabread /samplePingpong;
#X msg 168 270 list /samplePingpong set \$1;
#X connect 1 0 2 0;
#X connect 1 0 3 0;
#X connect 1 0 4 0;
#X connect 1 0 5 0;
#X connect 1 0 6 0;
#X connect 1 0 12 0;
#X connect 1 0 14 0;
#X connect 2 0 7 0;
#X connect 3 0 8 0;
#X connect 4 0 9 0;
#X connect 5 0 10 0;
#X connect 6 0 11 0;
#X connect 7 0 0 0;
#X connect 8 0 0 0;
#X connect 9 0 0 0;
#X connect 10 0 0 0;
#X connect 11 0 0 0;
#X connect 12 0 13 0;
#X connect 13 0 0 0;
#X connect 14 0 15 0;
#X connect 15 0 0 0;
#X restore 157 314 pd playback;
#N canvas 0 50 667 300 record 0;
#X obj 267 194 s toGUI;
#X obj 267 23 inlet;
#X obj 24 78 tabread /sampleRec;
#X obj 336 78 tabread /sourceSelf;
#X obj 498 78 tabread /sourceAll;
#X obj 180 78 tabread /sourceMic;
#X msg 24 102 list /sampleRec set \$1;
#X msg 180 102 list /sourceMic set \$1;
#X msg 336 102 list /sourceSelf set \$1;
#X msg 498 102 list /sourceAll set \$1;
#X connect 1 0 2 0;
#X connect 1 0 3 0;
#X connect 1 0 4 0;
#X connect 1 0 5 0;
#X connect 2 0 6 0;
#X connect 3 0 8 0;
#X connect 4 0 9 0;
#X connect 5 0 7 0;
#X connect 6 0 0 0;
#X connect 7 0 0 0;
#X connect 8 0 0 0;
#X connect 9 0 0 0;
#X restore 157 334 pd record;
#N canvas 0 50 905 287 delay 0;
#X obj 358 238 s toGUI;
#X obj 358 9 inlet;
#X obj 62 87 tabread /delayOn;
#X obj 204 87 tabread /delayTime;
#X obj 358 87 tabread /delayFeedback;
#X obj 538 87 tabread /delayLevel;
#X obj 696 87 tabread /delayRandom;
#X msg 62 111 list /delayOn set \$1;
#X msg 204 111 list /delayTime set \$1;
#X msg 358 111 list /delayFeedback set \$1;
#X msg 538 111 list /delayLevel set \$1;
#X msg 696 111 list /delayRandom set \$1;
#X connect 1 0 2 0;
#X connect 1 0 3 0;
#X connect 1 0 4 0;
#X connect 1 0 5 0;
#X connect 1 0 6 0;
#X connect 2 0 7 0;
#X connect 3 0 8 0;
#X connect 4 0 9 0;
#X connect 5 0 10 0;
#X connect 6 0 11 0;
#X connect 7 0 0 0;
#X connect 8 0 0 0;
#X connect 9 0 0 0;
#X connect 10 0 0 0;
#X connect 11 0 0 0;
#X restore 157 354 pd delay;
#N canvas 0 50 861 337 filter 0;
#X obj 355 204 s toGUI;
#X obj 355 22 inlet;
#X obj 15 100 tabread /filterActive;
#X obj 187 100 tabread /filterFreq;
#X obj 355 100 tabread /filterLevel;
#X obj 525 100 tabread /filterBW;
#X obj 695 100 tabread /filterRandom;
#X msg 15 125 list /filterActive set \$1;
#X msg 186 125 list /filterFreq set \$1;
#X msg 355 125 list /filterLevel set \$1;
#X msg 525 125 list /filterBW set \$1;
#X msg 695 125 list /filterRandom set \$1;
#X connect 1 0 2 0;
#X connect 1 0 3 0;
#X connect 1 0 4 0;
#X connect 1 0 5 0;
#X connect 1 0 6 0;
#X connect 2 0 7 0;
#X connect 3 0 8 0;
#X connect 4 0 9 0;
#X connect 5 0 10 0;
#X connect 6 0 11 0;
#X connect 7 0 0 0;
#X connect 8 0 0 0;
#X connect 9 0 0 0;
#X connect 10 0 0 0;
#X connect 11 0 0 0;
#X restore 157 374 pd filter;
#N canvas 0 50 404 337 fx 0;
#X obj 65 201 s toGUI;
#X obj 65 84 inlet;
#X obj 154 100 tabread /sendReverb;
#X msg 154 125 list /sendReverb set \$1;
#X obj 154 160 tabread /pitchShifter;
#X msg 154 185 list /pitchShifter set \$1;
#X connect 1 0 2 0;
#X connect 1 0 4 0;
#X connect 2 0 3 0;
#X connect 3 0 0 0;
#X connect 4 0 5 0;
#X connect 5 0 0 0;
#X restore 157 394 pd fx;
#X obj 40 24 receive fromGUI;
#X obj 40 45 list trim;
#X obj 40 125 xyToN;
#X obj 76 298 - 1;
#X obj 89 267 v selected;
#X text 106 297 recall sample values;
#X floatatom 123 175 5 0 0 0 - - -, f 5;
#X text 164 193 display sample number;
#X obj 99 192 i;
#X msg 99 215 list /currentLabel \$1;
#X obj 131 124 s \$0-recordSession;
#X obj 222 104 s \$0-sessionIndex;
#X obj 40 66 route /gridSelect /recordSession /sessionIndex;
#X connect 0 0 12 0;
#X connect 0 1 12 1;
#X connect 0 2 1 1;
#X connect 1 0 14 0;
#X connect 1 0 13 0;
#X connect 1 0 16 0;
#X connect 1 0 18 0;
#X connect 10 0 11 0;
#X connect 11 0 22 0;
#X connect 12 0 4 0;
#X connect 12 0 1 0;
#X connect 13 0 5 0;
#X connect 13 0 6 0;
#X connect 13 0 7 0;
#X connect 13 0 8 0;
#X connect 13 0 9 0;
#X connect 18 0 19 0;
#X connect 19 0 2 0;
#X connect 22 0 0 0;
#X connect 22 1 20 0;
#X connect 22 2 21 0;
#X restore 32 116 pd select;
#X obj 62 297 r toGUI;
#X obj 149 450 print toGUI;
#X obj 182 396 tgl 15 0 empty empty empty 17 7 0 10 -262144 -1 -1 0
1;
#X obj 149 422 spigot;
#N canvas 142 89 499 208 params 0;
#X obj 153 29 receive fromGUI;
#X obj 153 50 list trim;
#N canvas 71 50 501 431 delay 0;
#X obj 28 55 inlet;
#X obj 28 85 route /delayOn /delayTime /delayFeedback /delayLevel /delayRandom
, f 67;
#X obj 101 246 loadbang;
#X msg 101 288 const 0.5;
#X obj 101 267 del 10;
#X obj 184 302 array define /delayOn 9;
#X obj 184 322 array define /delayTime 9;
#X obj 183 343 array define /delayFeedback 9;
#X obj 184 362 array define /delayLevel 9;
#X obj 184 382 array define /delayRandom 9;
#X obj 107 178 saveStatus /delayTime;
#X obj 28 202 saveStatus /delayOn;
#X obj 187 156 saveStatus /delayFeedback;
#X obj 267 133 saveStatus /delayLevel;
#X obj 347 113 saveStatus /delayRandom;
#X connect 0 0 1 0;
#X connect 1 0 11 0;
#X connect 1 1 10 0;
#X connect 1 2 12 0;
#X connect 1 3 13 0;
#X connect 1 4 14 0;
#X connect 2 0 4 0;
#X connect 3 0 6 0;
#X connect 3 0 7 0;
#X connect 3 0 8 0;
#X connect 4 0 3 0;
#X restore 222 109 pd delay;
#N canvas 0 50 507 374 record 0;
#X msg 132 279 const 1;
#X obj 25 78 route /sampleRec /sourceMic /sourceSelf /sourceAll;
#X obj 25 27 inlet;
#X obj 132 225 loadbang;
#X obj 132 246 del 10;
#X obj 229 275 array define /sampleRec 9;
#X obj 229 295 array define /sourceMic 9;
#X obj 229 315 array define /sourceSelf 9;
#X obj 229 335 array define /sourceAll 9;
#X obj 25 195 saveStatus /sampleRec;
#X obj 99 171 saveStatus /sourceMic;
#X obj 173 149 saveStatus /sourceSelf;
#X obj 247 126 saveStatus /sourceAll;
#X connect 0 0 6 0;
#X connect 1 0 9 0;
#X connect 1 1 10 0;
#X connect 1 2 11 0;
#X connect 1 3 12 0;
#X connect 2 0 1 0;
#X connect 3 0 4 0;
#X connect 4 0 0 0;
#X restore 153 109 pd record;
#N canvas 22 22 708 532 playback 0;
#X msg 81 381 const 0.5;
#X msg 81 420 const 6;
#X obj 81 326 loadbang;
#X obj 25 25 inlet;
#X obj 81 347 del 10;
#X msg 81 460 const 4;
#X obj 25 123 route /sampleLoop /sampleVolume /sampleReverse /sampleSpeed
/randomSpeed /samplePan /samplePingpong, f 99;
#X obj 178 397 array define /sampleVolume 9;
#X obj 178 417 array define /sampleReverse 9;
#X obj 178 436 array define /sampleSpeed 9;
#X obj 178 456 array define /randomSpeed 9;
#X obj 178 476 array define /samplePan 9;
#X obj 178 358 array define /samplePingpong 9;
#X obj 178 378 array define /sampleLoop 9;
#X obj 25 291 saveStatus /sampleLoop;
#X obj 107 265 saveStatus /sampleVolume;
#X obj 190 240 saveStatus /sampleReverse;
#X obj 272 216 saveStatus /sampleSpeed;
#X obj 355 196 saveStatus /randomSpeed;
#X obj 437 176 saveStatus /samplePan;
#X obj 517 156 saveStatus /samplePingpong;
#X connect 0 0 1 0;
#X connect 0 0 7 0;
#X connect 1 0 5 0;
#X connect 1 0 9 0;
#X connect 2 0 4 0;
#X connect 3 0 6 0;
#X connect 4 0 0 0;
#X connect 5 0 11 0;
#X connect 6 0 14 0;
#X connect 6 1 15 0;
#X connect 6 2 16 0;
#X connect 6 3 17 0;
#X connect 6 4 18 0;
#X connect 6 5 19 0;
#X connect 6 6 20 0;
#X restore 72 109 pd playback;
#N canvas 512 105 521 431 filter 0;
#X obj 28 25 inlet;
#X msg 98 282 const 0.5;
#X obj 28 46 route /filterActive /filterFreq /filterLevel /filterBW
/filterRandom, f 68;
#X obj 98 232 loadbang;
#X obj 98 253 del 10;
#X obj 177 298 array define /filterActive 9;
#X obj 177 318 array define /filterFreq 9;
#X obj 176 339 array define /filterLevel 9;
#X obj 177 358 array define /filterBW 9;
#X obj 177 378 array define /filterRandom 9;
#X obj 28 172 saveStatus /filterActive;
#X obj 109 148 saveStatus /filterFreq;
#X obj 190 126 saveStatus /filterLevel;
#X obj 271 103 saveStatus /filterBW;
#X obj 352 83 saveStatus /filterRandom;
#X connect 0 0 2 0;
#X connect 1 0 6 0;
#X connect 1 0 7 0;
#X connect 1 0 8 0;
#X connect 2 0 10 0;
#X connect 2 1 11 0;
#X connect 2 2 12 0;
#X connect 2 3 13 0;
#X connect 2 4 14 0;
#X connect 3 0 4 0;
#X connect 4 0 1 0;
#X restore 282 109 pd filter;
#N canvas 512 105 521 431 fx 0;
#X obj 28 25 inlet;
#X obj 98 232 loadbang;
#X obj 98 253 del 10;
#X obj 177 318 array define /sendReverb 9;
#X obj 28 172 saveStatus /sendReverb;
#X obj 28 46 route /sendReverb /pitchShifter;
#X obj 119 152 saveStatus /pitchShifter;
#X obj 177 298 array define /pitchShifter 9;
#X connect 0 0 5 0;
#X connect 1 0 2 0;
#X connect 5 0 4 0;
#X connect 5 1 6 0;
#X restore 352 109 pd fx;
#X connect 0 0 1 0;
#X connect 1 0 2 0;
#X connect 1 0 3 0;
#X connect 1 0 4 0;
#X connect 1 0 5 0;
#X connect 1 0 6 0;
#X restore 32 64 pd params;
#X text 208 28 TODO;
#X obj 62 319 list trim;
#X obj 62 342 route /timer /playPos /gridPulse /inputMonitor /sampleMonitor
/masterMonitor, f 15;
#N canvas 0 50 545 271 init 0;
#X obj 164 100 v sampleSeconds;
#X msg 164 76 20;
#X obj 43 166 v gridSizeX;
#X obj 118 166 v gridSizeY;
#X obj 43 82 t b b;
#X obj 164 15 loadbang;
#X obj 338 89 del 100;
#X obj 338 193 s toGUI;
#X msg 365 143 list /gridSelect 0 0 1;
#X msg 338 163 list /gridSelect 0 0 0;
#X obj 338 110 t b b;
#X msg 43 143 3;
#X msg 118 146 3;
#X connect 1 0 0 0;
#X connect 4 0 11 0;
#X connect 4 1 12 0;
#X connect 5 0 4 0;
#X connect 5 0 1 0;
#X connect 5 0 6 0;
#X connect 6 0 10 0;
#X connect 8 0 7 0;
#X connect 9 0 7 0;
#X connect 10 0 9 0;
#X connect 10 1 8 0;
#X connect 11 0 2 0;
#X connect 12 0 3 0;
#X restore 32 38 pd init;
#X obj 182 346 loadbang;
#X msg 182 367 0;
#X text 202 96 salvare/caricare sample banks;
#N canvas 99 73 588 502 master 0;
#X obj 91 413 dac~, f 8;
#X obj 7 382 s~ mixOut;
#X obj 40 444 monitor /masterMonitor;
#X obj 91 348 limiter, f 8;
#X obj 219 265 verb.oct~;
#X obj 496 27 loadbang;
#X obj 242 76 hsl 128 15 0 1 0 1 empty empty 'roomsize' 20 8 0 10 -262144
-260097 -1 11430 0;
#X obj 252 119 hsl 128 15 0 2.4 0 1 empty empty damp 20 8 0 10 -262144
-260097 -1 10583 0;
#X floatatom 248 97 5 0 0 0 - - -, f 5;
#X floatatom 258 139 5 0 0 0 - - -, f 5;
#X obj 273 212 hsl 128 15 0 1 0 1 empty empty wet 20 8 0 10 -262144
-260097 -1 12700 0;
#X obj 262 162 hsl 128 15 0 1 0 1 empty empty dry 20 8 0 10 -262144
-260097 -1 0 0;
#X floatatom 284 235 5 0 0 0 - - -, f 5;
#X floatatom 267 186 5 0 0 0 - - -, f 5;
#X obj 219 27 catch~ toReverbLeft;
#X obj 229 47 catch~ toReverbRight;
#X obj 34 222 catch~ toMasterLeft;
#X obj 80 244 catch~ toMasterRight;
#X obj 203 307 hip~ 200;
#X obj 270 314 hip~ 200;
#X floatatom 308 274 5 0 0 0 - - -, f 5;
#X msg 427 196 1;
#X msg 426 60 0.9;
#X msg 426 103 2;
#X obj 174 402 s~ recordLeft;
#X obj 173 380 s~ recordRight;
#X connect 3 0 1 0;
#X connect 3 0 0 0;
#X connect 3 0 2 0;
#X connect 3 0 24 0;
#X connect 3 1 1 0;
#X connect 3 1 0 1;
#X connect 3 1 25 0;
#X connect 4 0 18 0;
#X connect 4 1 19 0;
#X connect 5 0 23 0;
#X connect 5 0 22 0;
#X connect 5 0 21 0;
#X connect 6 0 8 0;
#X connect 6 0 4 2;
#X connect 7 0 9 0;
#X connect 7 0 4 3;
#X connect 10 0 12 0;
#X connect 10 0 4 5;
#X connect 11 0 13 0;
#X connect 11 0 4 4;
#X connect 14 0 4 0;
#X connect 15 0 4 1;
#X connect 16 0 3 0;
#X connect 17 0 3 1;
#X connect 18 0 3 0;
#X connect 19 0 3 1;
#X connect 20 0 18 1;
#X connect 20 0 19 1;
#X connect 21 0 10 0;
#X connect 22 0 6 0;
#X connect 23 0 7 0;
#X restore 32 140 pd master;
#X text 213 367 1 to log messages toGUI;
#X text 203 120 scelta traccia sorgente in modalita TRK (self);
#X text 202 143 pitch shifter;
#X obj 408 364 loadbang;
#X msg 408 385 \; pd dsp 1;
#X text 205 167 window salva click tra fine e inizio;
#X text 205 78 FIX inizio scrittura;
#X obj 32 229 samplePlayer 1;
#X obj 344 238 loadbang;
#X obj 344 305 s monitors;
#X obj 344 283 tgl 15 0 empty empty empty 17 7 0 10 -262144 -1 -1 0
1;
#X msg 344 261 1;
#X obj 414 238 loadbang;
#X obj 414 283 tgl 15 0 empty empty empty 17 7 0 10 -262144 -1 -1 0
1;
#X msg 414 261 1;
#X obj 414 305 s timerSwitch;
#N canvas 29 48 719 514 session 0;
#X obj 151 76 tgl 15 0 empty empty empty 17 7 0 10 -262144 -1 -1 0
1;
#X obj 145 95 sel 0 1;
#X obj 164 199 f;
#X obj 164 220 t b f;
#X msg 145 248 start;
#X msg 100 248 stop;
#X obj 206 279 r~ recordRight;
#X obj 248 300 r~ recordLeft;
#X obj 191 349 writesf~ 2;
#X obj 190 173 s toGUI;
#X obj 145 54 r \$0-recordSession;
#X obj 179 122 r \$0-sessionIndex;
#X msg 100 413 saved session-\$1.wav;
#X obj 100 390 v \$0-sessionIndex;
#X obj 100 367 b;
#X obj 100 434 print;
#X msg 190 149 list /sessionName session-\$1.wav;
#X msg 191 248 open sessions/session-\$1.wav;
#X connect 1 0 5 0;
#X connect 1 1 2 0;
#X connect 2 0 3 0;
#X connect 3 0 4 0;
#X connect 3 1 17 0;
#X connect 4 0 8 0;
#X connect 5 0 8 0;
#X connect 5 0 14 0;
#X connect 6 0 8 0;
#X connect 7 0 8 1;
#X connect 10 0 0 0;
#X connect 10 0 1 0;
#X connect 11 0 16 0;
#X connect 11 0 2 1;
#X connect 12 0 15 0;
#X connect 13 0 12 0;
#X connect 14 0 13 0;
#X connect 16 0 9 0;
#X connect 17 0 8 0;
#X restore 35 182 pd session;
#X obj 32 249 samplePlayer 2;
#X obj 32 269 samplePlayer 3;
#X obj 212 269 samplePlayer 9;
#X obj 212 249 samplePlayer 8;
#X obj 212 229 samplePlayer 7;
#X obj 122 269 samplePlayer 6;
#X obj 122 249 samplePlayer 5;
#X obj 122 229 samplePlayer 4;
#X connect 2 0 8 0;
#X connect 4 0 5 1;
#X connect 5 0 3 0;
#X connect 8 0 9 0;
#X connect 9 6 5 0;
#X connect 11 0 12 0;
#X connect 12 0 4 0;
#X connect 18 0 19 0;
#X connect 23 0 26 0;
#X connect 25 0 24 0;
#X connect 26 0 25 0;
#X connect 27 0 29 0;
#X connect 28 0 30 0;
#X connect 29 0 28 0;
