#N canvas 52 26 481 577 10;
#X obj 11 5 cnv 15 450 550 empty empty SAMPLE_PLAYER 20 12 0 14 -192294
-66577 0;
#N canvas 46 3 574 661 record 0;
#X msg 313 171 stop;
#X obj 369 131 timer;
#X floatatom 379 155 8 0 0 0 - - -, f 8;
#X obj 369 410 t f b;
#X obj 396 434 samplerate~;
#X obj 369 344 / 1000;
#X obj 369 459 *;
#X obj 107 400 tabwrite~ /sample-\$1;
#X obj 294 93 sel 1 0;
#X obj 375 366 expr 1/$f1;
#X obj 375 387 s \$0-rampFreq;
#X obj 252 31 r \$0-recording;
#X obj 107 226 *~;
#X obj 204 236 t b b;
#X msg 213 97 \$1 10;
#X obj 313 137 del 10;
#X msg 340 580 \; /sample-\$1 normalize -1 1;
#X obj 340 555 f \$1;
#X obj 313 526 t b b;
#X obj 369 496 s \$0-sampleSize;
#X obj 379 312 s \$0-sampleLength;
#N canvas 265 101 450 355 startPos 0;
#X obj 67 26 inlet;
#X obj 67 163 t f b;
#X obj 112 197 samplerate~;
#X obj 100 49 r \$0-playback;
#X obj 67 74 spigot;
#X obj 82 97 r \$0-curPos;
#X obj 67 125 f;
#X obj 67 288 outlet;
#X obj 67 232 expr int($f1*$f2/1000);
#X floatatom 79 258 10 0 0 0 - - -, f 10;
#X connect 0 0 4 0;
#X connect 1 0 8 0;
#X connect 1 1 2 0;
#X connect 2 0 8 1;
#X connect 3 0 4 1;
#X connect 4 0 6 0;
#X connect 5 0 6 1;
#X connect 6 0 1 0;
#X connect 8 0 9 0;
#X connect 8 0 7 0;
#X restore 231 323 pd startPos;
#X msg 231 344 start \$1;
#N canvas 187 132 493 459 autoStop 0;
#X obj 87 402 s toGUI;
#X obj 87 359 f \$1;
#X msg 87 382 list /sampleRec 0;
#X obj 102 204 v selected;
#X obj 87 245 ==;
#X obj 75 175 t b b;
#X obj 62 204 f \$1;
#X obj 87 266 sel 1 0;
#X obj 143 93 inlet stopped;
#X obj 108 17 inlet started;
#X obj 75 149 spigot;
#X msg 141 119 0;
#X msg 108 119 1;
#X obj 106 314 s \$0-autoStop;
#X obj 40 177 bng 15 250 50 0 empty empty empty 17 7 0 10 -262144 -1
-1;
#X text 120 243 sample is still selected?;
#X text 120 359 1: turn off rec toggle;
#X obj 353 340 f \$1;
#X obj 302 307 t b b;
#X msg 302 340 0;
#X text 142 269 0: send stop bang and save toggle status;
#X obj 48 65 v sampleSeconds;
#X obj 48 86 * 1000;
#X obj 21 44 t b b;
#X obj 33 108 del;
#X obj 302 376 saveStatus /sampleRec \$1;
#X connect 1 0 2 0;
#X connect 2 0 0 0;
#X connect 3 0 4 1;
#X connect 4 0 7 0;
#X connect 5 0 6 0;
#X connect 5 1 3 0;
#X connect 6 0 4 0;
#X connect 7 0 1 0;
#X connect 7 1 13 0;
#X connect 7 1 18 0;
#X connect 8 0 11 0;
#X connect 9 0 12 0;
#X connect 9 0 23 0;
#X connect 10 0 5 0;
#X connect 10 0 14 0;
#X connect 11 0 10 1;
#X connect 12 0 10 1;
#X connect 17 0 25 1;
#X connect 18 0 17 0;
#X connect 18 0 19 0;
#X connect 19 0 25 0;
#X connect 21 0 22 0;
#X connect 22 0 24 1;
#X connect 23 0 24 0;
#X connect 23 1 21 0;
#X connect 24 0 10 0;
#X restore 241 283 pd autoStop;
#X obj 252 57 t f f;
#X obj 396 89 r \$0-autoStop;
#N canvas 130 128 450 300 source 0;
#X obj 174 221 outlet~;
#X obj 308 42 adc~ 1;
#X obj 189 63 r \$0-sourceSelf;
#X obj 174 88 *~;
#X obj 43 42 r~ mixOut;
#X obj 57 63 r \$0-sourceAll;
#X obj 308 88 *~ 1;
#X obj 42 88 *~;
#X obj 329 63 r \$0-sourceMic;
#X obj 329 139 r sampleSelect;
#X obj 329 161 == \$1;
#X obj 174 139 hip~ 5;
#X obj 174 42 r~ \$0-out;
#X obj 206 187 monitor /inputMonitor;
#X connect 1 0 6 0;
#X connect 2 0 3 1;
#X connect 3 0 11 0;
#X connect 4 0 7 0;
#X connect 5 0 7 1;
#X connect 6 0 11 0;
#X connect 7 0 11 0;
#X connect 8 0 6 1;
#X connect 9 0 10 0;
#X connect 10 0 13 1;
#X connect 11 0 0 0;
#X connect 11 0 13 0;
#X connect 12 0 3 0;
#X restore 107 57 pd source;
#N canvas 161 147 450 367 autoPlay 0;
#X obj 65 23 inlet;
#X obj 110 54 r \$0-playback;
#X obj 110 75 == 0;
#X obj 65 118 spigot 1;
#X obj 65 297 s \$0-playback;
#X msg 65 169 1;
#X obj 120 237 f \$1;
#X obj 81 201 t f b;
#X obj 261 310 s toGUI;
#X obj 280 204 f \$1;
#X obj 280 233 ==;
#X obj 316 204 v selected;
#X obj 261 263 spigot;
#X obj 261 172 t b b b;
#X text 258 138 switch toggle on if sample is selected, f 21;
#X msg 261 286 list /sampleLoop 1;
#X obj 81 273 saveStatus /sampleLoop \$1;
#X connect 0 0 3 0;
#X connect 1 0 2 0;
#X connect 2 0 3 1;
#X connect 3 0 5 0;
#X connect 3 0 13 0;
#X connect 5 0 4 0;
#X connect 5 0 7 0;
#X connect 6 0 16 1;
#X connect 7 0 16 0;
#X connect 7 1 6 0;
#X connect 9 0 10 0;
#X connect 10 0 12 1;
#X connect 11 0 10 1;
#X connect 12 0 15 0;
#X connect 13 0 12 0;
#X connect 13 1 9 0;
#X connect 13 2 11 0;
#X connect 15 0 8 0;
#X restore 235 565 pd autoPlay;
#X obj 444 140 r \$0-playback;
#X obj 444 161 == 0;
#X text 429 189 set duration if not playing, f 14;
#X obj 369 192 spigot 1;
#X obj 393 222 t f b;
#X obj 420 243 v sampleSeconds;
#X obj 420 264 * 1000;
#X obj 369 291 min;
#X obj 213 119 line~;
#X connect 0 0 7 0;
#X connect 0 0 18 0;
#X connect 0 0 23 1;
#X connect 1 0 2 0;
#X connect 1 0 31 0;
#X connect 3 0 6 0;
#X connect 3 1 4 0;
#X connect 4 0 6 1;
#X connect 5 0 9 0;
#X connect 5 0 3 0;
#X connect 6 0 19 0;
#X connect 8 0 1 0;
#X connect 8 0 13 0;
#X connect 8 1 1 1;
#X connect 8 1 15 0;
#X connect 9 0 10 0;
#X connect 11 0 24 0;
#X connect 12 0 7 0;
#X connect 13 0 7 0;
#X connect 13 1 21 0;
#X connect 13 1 23 0;
#X connect 14 0 36 0;
#X connect 15 0 0 0;
#X connect 17 0 16 0;
#X connect 18 0 27 0;
#X connect 18 1 17 0;
#X connect 21 0 22 0;
#X connect 22 0 7 0;
#X connect 24 0 14 0;
#X connect 24 1 8 0;
#X connect 25 0 1 1;
#X connect 25 0 15 0;
#X connect 26 0 12 0;
#X connect 28 0 29 0;
#X connect 29 0 31 1;
#X connect 31 0 32 0;
#X connect 31 0 35 0;
#X connect 32 1 33 0;
#X connect 33 0 34 0;
#X connect 34 0 35 1;
#X connect 35 0 5 0;
#X connect 35 0 20 0;
#X connect 36 0 12 1;
#X restore 48 247 pd record;
#N canvas 161 165 984 344 status 0;
#X obj 128 81 f \$1;
#X obj 128 61 bang;
#X obj 345 309 s toGUI;
#X obj 57 101 delay 100;
#X obj 57 142 pack f f f;
#X obj 406 33 r \$0-playback;
#X obj 406 94 f \$1;
#X obj 423 143 pack f f f;
#X obj 406 55 t b f;
#X obj 650 128 f \$1;
#X obj 667 181 pack f f f;
#X obj 650 89 t b f;
#X obj 650 37 r \$0-recording;
#X msg 667 213 list /gridPulse \$1 \$2 \$3;
#X obj 662 61 r \$0-autoStop;
#X obj 128 40 r \$0-pulse;
#X obj 128 101 nToXY;
#X obj 406 115 nToXY;
#X obj 650 150 nToXY;
#X msg 28 172 list /gridPulse set \$2 \$3 0;
#X msg 208 172 list /gridPulse set \$1 \$2 1;
#X obj 208 144 pack f f;
#X msg 423 177 list /gridActive set \$1 \$2 \$3;
#X connect 0 0 16 0;
#X connect 1 0 0 0;
#X connect 1 0 3 0;
#X connect 3 0 4 0;
#X connect 4 0 19 0;
#X connect 5 0 8 0;
#X connect 6 0 17 0;
#X connect 7 0 22 0;
#X connect 8 0 6 0;
#X connect 8 1 7 2;
#X connect 9 0 18 0;
#X connect 10 0 13 0;
#X connect 11 0 9 0;
#X connect 11 1 10 2;
#X connect 12 0 11 0;
#X connect 13 0 2 0;
#X connect 14 0 11 0;
#X connect 15 0 1 0;
#X connect 16 0 4 1;
#X connect 16 0 21 0;
#X connect 16 1 4 2;
#X connect 16 1 21 1;
#X connect 17 0 7 0;
#X connect 17 1 7 1;
#X connect 18 0 10 0;
#X connect 18 1 10 1;
#X connect 19 0 2 0;
#X connect 20 0 2 0;
#X connect 21 0 20 0;
#X connect 22 0 2 0;
#X restore 48 209 pd status;
#X obj 44 93 table /sample-\$1;
#X obj 77 479 soundfiler;
#X msg 77 453 write -wave sample-\$1.wav /sample-\$1;
#N canvas 31 49 450 249 router 0;
#X obj 124 28 r fromGUI;
#N canvas 215 150 341 242 filterData 0;
#X obj 88 39 inlet;
#X obj 88 69 list trim;
#X obj 121 125 v selected;
#X obj 88 168 spigot;
#X obj 121 146 == \$1;
#X obj 88 189 outlet;
#X obj 88 93 t a b, f 6;
#X connect 0 0 1 0;
#X connect 1 0 6 0;
#X connect 2 0 4 0;
#X connect 3 0 5 0;
#X connect 4 0 3 1;
#X connect 6 0 3 0;
#X connect 6 1 2 0;
#X restore 124 62 pd filterData;
#N canvas 21 82 689 364 playback 0;
#X obj 24 170 s \$0-playback;
#X obj 108 235 s \$0-volume;
#X obj 277 170 s \$0-reverse;
#X obj 24 37 inlet;
#X obj 446 180 s \$0-samplePan;
#X obj 24 135 route /sampleLoop /sampleVolume /sampleSpeed /sampleReverse
/randomSpeed /samplePan /samplePingpong, f 99;
#X obj 530 160 s \$0-samplePingpong;
#X obj 34 68 route /sampleFadeOut;
#X obj 34 100 s \$0-sampleFadeOut;
#X obj 192 190 s \$0-speedSlider;
#X obj 361 200 s \$0-rndSpeedTgl;
#X connect 3 0 5 0;
#X connect 3 0 7 0;
#X connect 5 0 0 0;
#X connect 5 1 1 0;
#X connect 5 2 9 0;
#X connect 5 3 2 0;
#X connect 5 4 10 0;
#X connect 5 5 4 0;
#X connect 5 6 6 0;
#X connect 7 0 8 0;
#X restore 108 124 pd playback;
#N canvas 0 50 450 300 record 0;
#X obj 265 139 s \$0-recording;
#X obj 43 199 s \$0-sourceSelf;
#X obj 117 179 s \$0-sourceAll;
#X obj 191 159 s \$0-sourceMic;
#X obj 43 111 route /sourceSelf /sourceAll /sourceMic /sampleRec;
#X obj 43 41 inlet;
#X connect 4 0 1 0;
#X connect 4 1 2 0;
#X connect 4 2 3 0;
#X connect 4 3 0 0;
#X connect 5 0 4 0;
#X restore 40 124 pd record;
#N canvas 0 50 450 300 delay 0;
#X obj 21 182 s \$0-delayTime;
#X obj 98 162 s \$0-delayFeedback;
#X obj 175 142 s \$0-delayLevel;
#X obj 253 122 s \$0-delayOn;
#X obj 21 81 route /delayTime /delayFeedback /delayLevel /delayOn /delayRandom
, f 65;
#X obj 330 102 s \$0-delayRandom;
#X obj 21 41 inlet;
#X connect 4 0 0 0;
#X connect 4 1 1 0;
#X connect 4 2 2 0;
#X connect 4 3 3 0;
#X connect 4 4 5 0;
#X connect 6 0 4 0;
#X restore 188 124 pd delay;
#N canvas 766 273 564 300 filter 0;
#X obj 21 41 inlet;
#X obj 21 182 s \$0-filterActive;
#X obj 21 81 route /filterActive /filterFreq /filterLevel /filterBW
/filterRandom, f 68;
#X obj 102 162 s \$0-filterFreq;
#X obj 183 142 s \$0-filterLevel;
#X obj 264 122 s \$0-filterBW;
#X obj 345 102 s \$0-filterRandom;
#X connect 0 0 2 0;
#X connect 2 0 1 0;
#X connect 2 1 3 0;
#X connect 2 2 4 0;
#X connect 2 3 5 0;
#X connect 2 4 6 0;
#X restore 248 124 pd filter;
#N canvas 766 273 564 300 fx 0;
#X obj 21 41 inlet;
#X obj 21 182 s \$0-sendReverb;
#X obj 21 81 route /sendReverb /pitchShifter;
#X obj 112 162 s \$0-pitchShifter;
#X connect 0 0 2 0;
#X connect 2 0 1 0;
#X connect 2 1 3 0;
#X restore 318 124 pd fx;
#X connect 0 0 1 0;
#X connect 1 0 3 0;
#X connect 1 0 2 0;
#X connect 1 0 4 0;
#X connect 1 0 5 0;
#X connect 1 0 6 0;
#X restore 48 184 pd router;
#N canvas 736 15 510 546 delay 0;
#X obj 18 45 inlet~;
#X obj 183 452 outlet~;
#X obj 183 18 r \$0-delayTime;
#X obj 32 144 r \$0-delayFeedback;
#X obj 198 221 r \$0-delayLevel;
#X floatatom 193 95 8 0 0 0 - - -, f 8;
#X floatatom 206 245 5 0 0 0 - - -, f 5;
#X obj 183 184 delread4~ \$0-delay;
#X obj 19 332 delwrite~ \$0-delay 2000;
#X obj 183 133 pack \$1 100;
#X obj 183 154 vline~;
#X obj 32 294 *~;
#X obj 183 325 *~;
#X floatatom 50 191 5 0 0 0 - - -, f 5;
#X obj 198 357 r \$0-delayOn;
#X obj 211 382 tgl 15 0 empty empty empty 17 7 0 10 -262144 -1 -1 0
1;
#X obj 183 69 expr pow(44.5 \, $f1+1);
#X obj 32 165 expr $f1*0.95;
#N canvas 0 50 404 450 randomTime 0;
#X obj 111 103 == 1;
#X obj 66 135 spigot 1;
#X floatatom 83 161 5 0 0 0 - - -, f 5;
#X obj 39 215 metro;
#X floatatom 89 207 5 0 0 0 - - -, f 5;
#X obj 50 238 bng 15 250 50 0 empty empty empty 17 7 0 10 -262144 -1
-1;
#X floatatom 51 367 5 0 0 0 - - -, f 5;
#X obj 66 112 f;
#X obj 84 78 t b f;
#X obj 39 17 r \$0-delayRandom;
#X obj 66 55 r \$0-delayTime;
#X obj 39 260 random 100;
#X obj 39 341 / 100;
#X obj 39 291 pack f f;
#X obj 39 312 line;
#X obj 66 186 expr (1.5-$f1)*666;
#X obj 39 392 outlet;
#X connect 0 0 1 1;
#X connect 1 0 2 0;
#X connect 1 0 15 0;
#X connect 3 0 5 0;
#X connect 3 0 11 0;
#X connect 7 0 1 0;
#X connect 8 0 7 0;
#X connect 8 1 0 0;
#X connect 9 0 3 0;
#X connect 9 0 8 0;
#X connect 10 0 7 0;
#X connect 11 0 13 0;
#X connect 12 0 6 0;
#X connect 12 0 16 0;
#X connect 13 0 14 0;
#X connect 14 0 12 0;
#X connect 15 0 4 0;
#X connect 15 0 3 1;
#X connect 15 0 13 1;
#X restore 192 44 pd randomTime;
#X obj 198 268 pack \$1 10;
#X obj 32 222 pack \$1 10;
#X obj 32 243 line~;
#X obj 198 289 line~;
#X obj 183 426 *~;
#X obj 198 401 gently.oct~;
#X obj 261 427 switch~;
#X connect 0 0 8 0;
#X connect 2 0 16 0;
#X connect 3 0 17 0;
#X connect 4 0 6 0;
#X connect 4 0 19 0;
#X connect 7 0 11 1;
#X connect 7 0 12 0;
#X connect 9 0 10 0;
#X connect 10 0 7 0;
#X connect 11 0 8 0;
#X connect 12 0 23 0;
#X connect 14 0 15 0;
#X connect 14 0 24 0;
#X connect 16 0 5 0;
#X connect 16 0 9 0;
#X connect 17 0 13 0;
#X connect 17 0 20 0;
#X connect 18 0 16 0;
#X connect 19 0 22 0;
#X connect 20 0 21 0;
#X connect 21 0 11 0;
#X connect 22 0 12 1;
#X connect 23 0 1 0;
#X connect 24 0 23 1;
#X connect 24 1 25 0;
#X restore 251 224 pd delay;
#N canvas 240 82 441 356 output 0;
#X obj 117 30 r \$0-volume;
#X obj 223 127 r sampleSelect;
#X obj 223 149 == \$1;
#X obj 314 202 *~;
#X obj 314 311 outlet~;
#X obj 329 102 inlet~;
#X msg 117 73 \$1 10;
#X obj 34 202 *~;
#X obj 34 311 outlet~;
#X obj 34 102 inlet~;
#X obj 117 156 line~;
#N canvas 137 81 382 495 fadeOut 0;
#X obj 74 53 sel 1 0;
#X obj 74 84 timer;
#X msg 74 152 0 \$1;
#X obj 74 423 outlet;
#X obj 74 105 * 5;
#X floatatom 81 128 10 0 0 0 - - -, f 10;
#X obj 111 322 s \$0-playback;
#X msg 92 212 0;
#X msg 92 354 list /sampleLoop set 0;
#X text 113 85 fadeOut = touch time * 5;
#X text 121 212 update status when finished;
#X obj 74 22 r \$0-sampleFadeOut;
#N canvas 688 223 372 370 rampDown 0;
#X obj 84 63 r \$0-volume;
#X obj 42 135 line;
#X msg 69 106 set \$1;
#X msg 54 241 list /sampleVolume set \$1;
#X obj 69 85 f;
#X obj 42 63 t a b;
#X obj 42 27 inlet;
#X obj 42 328 outlet finished;
#X obj 42 291 sel 0;
#X obj 67 176 t f b;
#X obj 208 192 f \$1;
#X obj 67 215 saveStatus /sampleVolume 12;
#X obj 54 265 setSampleGUI \$1;
#X connect 0 0 4 1;
#X connect 1 0 8 0;
#X connect 1 0 3 0;
#X connect 1 0 9 0;
#X connect 2 0 1 0;
#X connect 3 0 12 0;
#X connect 4 0 2 0;
#X connect 5 0 1 0;
#X connect 5 1 4 0;
#X connect 6 0 5 0;
#X connect 8 0 7 0;
#X connect 9 0 11 0;
#X connect 9 1 10 0;
#X connect 10 0 11 1;
#X restore 92 186 pd rampDown;
#X obj 124 288 saveStatus /sampleLoop \$1;
#X obj 92 377 setSampleGUI \$1;
#X connect 0 0 1 0;
#X connect 0 1 1 1;
#X connect 1 0 4 0;
#X connect 2 0 3 0;
#X connect 2 0 12 0;
#X connect 4 0 2 0;
#X connect 4 0 5 0;
#X connect 7 0 6 0;
#X connect 7 0 8 0;
#X connect 7 0 13 0;
#X connect 8 0 14 0;
#X connect 11 0 0 0;
#X connect 12 0 7 0;
#X restore 131 126 pd fadeOut;
#X obj 94 286 monitor /sampleMonitor;
#X obj 108 210 expr (pow(101 \, $f1)-1)/100;
#X obj 117 51 expr (pow(101 \, $f1)-1)/100;
#X connect 0 0 14 0;
#X connect 1 0 2 0;
#X connect 2 0 12 1;
#X connect 3 0 4 0;
#X connect 3 0 12 0;
#X connect 5 0 3 1;
#X connect 6 0 10 0;
#X connect 7 0 8 0;
#X connect 7 0 12 0;
#X connect 9 0 7 0;
#X connect 10 0 7 1;
#X connect 10 0 3 0;
#X connect 11 0 10 0;
#X connect 14 0 6 0;
#X restore 236 289 pd output;
#X obj 257 194 s~ \$0-out;
#X obj 236 157 +~;
#N canvas 217 128 450 300 reverb 0;
#X obj 201 42 inlet~;
#X obj 201 163 outlet~;
#X obj 289 43 r \$0-sendReverb;
#X obj 274 131 *~;
#X obj 289 83 pack \$1 10;
#X floatatom 298 64 5 0 0 0 - - -, f 5;
#X obj 73 70 inlet~;
#X obj 73 191 outlet~;
#X obj 146 159 *~;
#X obj 146 191 throw~ toReverbLeft;
#X obj 274 162 throw~ toReverbRight;
#X obj 289 104 line~;
#X connect 0 0 1 0;
#X connect 0 0 3 0;
#X connect 2 0 4 0;
#X connect 2 0 5 0;
#X connect 3 0 10 0;
#X connect 4 0 11 0;
#X connect 6 0 7 0;
#X connect 6 0 8 0;
#X connect 8 0 9 0;
#X connect 11 0 3 1;
#X connect 11 0 8 1;
#X restore 236 332 pd reverb;
#N canvas 0 50 450 300 pan 0;
#X obj 109 65 r \$0-samplePan;
#X obj 64 32 inlet~;
#X obj 64 233 outlet~;
#X floatatom 115 87 5 0 0 0 - - -, f 5;
#X obj 109 209 outlet~, f 9;
#X obj 64 177 pan.mmb~;
#X msg 109 131 \$1 10;
#X obj 109 152 line~;
#X obj 109 106 / 8;
#X obj 252 71 loadbang;
#X msg 252 92 0.5;
#X connect 0 0 3 0;
#X connect 0 0 8 0;
#X connect 1 0 5 0;
#X connect 5 0 2 0;
#X connect 5 1 4 0;
#X connect 6 0 7 0;
#X connect 7 0 5 1;
#X connect 8 0 6 0;
#X connect 9 0 10 0;
#X connect 10 0 6 0;
#X restore 236 255 pd pan;
#X obj 236 388 throw~ toMasterLeft;
#X obj 288 368 throw~ toMasterRight;
#N canvas 35 25 643 612 playback 0;
#X obj 289 368 *~;
#X msg 425 242 0;
#X floatatom 214 61 5 0 0 0 - - -, f 5;
#X floatatom 296 254 8 0 0 0 - - -, f 8;
#X obj 288 124 t b f;
#X obj 288 390 tabread4~ /sample-\$1;
#X obj 288 232 *;
#X obj 296 208 t b f;
#X obj 296 187 r \$0-rampFreq;
#X obj 499 129 r \$0-playback;
#X obj 304 345 r \$0-sampleSize;
#X obj 250 13 r \$0-reverse;
#X obj 145 369 samphold~;
#X msg 70 396 1;
#X obj 76 300 f 1;
#X obj 47 200 loadbang;
#X obj 152 501 bng 15 250 50 0 empty empty empty 17 7 0 10 -262144
-1 -1;
#X obj 76 258 + 1;
#X obj 425 218 sel 1;
#X obj 145 426 *~;
#X obj 160 399 r \$0-playback;
#X text 114 272 detect ramp beginning;
#X floatatom 81 495 5 0 0 0 - - -, f 5;
#X obj 229 341 *~ 1;
#X obj 144 480 change;
#N canvas 151 48 450 604 displayTime 0;
#X obj 139 57 t b f;
#X obj 139 85 f \$1;
#X obj 151 114 ==;
#X obj 151 137 t b f;
#X obj 133 169 +;
#X obj 133 190 == 2;
#X obj 133 5 inlet playback;
#X obj 139 30 r sampleSelect;
#X obj 133 211 tgl 15 0 empty empty empty 17 7 0 10 -262144 -1 -1 1
1;
#X obj 117 283 inlet~ ramp;
#X obj 105 310 snapshot~ 100;
#X obj 105 234 metro 100;
#X obj 105 549 s toGUI;
#X obj 148 342 r \$0-sampleLength;
#X obj 133 499 s toGUI;
#X obj 133 371 *;
#N canvas 421 136 450 300 round 0;
#X obj 80 58 inlet;
#X obj 80 152 outlet;
#X obj 80 131 / 100;
#X obj 80 79 / 10;
#X obj 80 100 int;
#X connect 0 0 3 0;
#X connect 2 0 1 0;
#X connect 3 0 4 0;
#X connect 4 0 2 0;
#X restore 133 430 pd round;
#X floatatom 64 344 5 0 0 0 - - -, f 5;
#X floatatom 141 452 5 0 0 0 - - -, f 5;
#X msg 105 529 list /playPos set \$1;
#X msg 133 479 list /timer \$1;
#X obj 142 393 s \$0-curPos;
#X obj 214 233 r timerSwitch;
#X obj 214 254 switch~;
#X obj 105 260 spigot;
#X connect 0 0 1 0;
#X connect 0 1 2 1;
#X connect 1 0 2 0;
#X connect 2 0 3 0;
#X connect 3 0 4 0;
#X connect 3 1 4 1;
#X connect 4 0 5 0;
#X connect 5 0 8 0;
#X connect 5 0 11 0;
#X connect 6 0 4 0;
#X connect 7 0 0 0;
#X connect 9 0 10 0;
#X connect 10 0 19 0;
#X connect 10 0 15 0;
#X connect 10 0 15 0;
#X connect 10 0 17 0;
#X connect 11 0 24 0;
#X connect 13 0 15 1;
#X connect 13 0 15 1;
#X connect 15 0 16 0;
#X connect 15 0 21 0;
#X connect 16 0 20 0;
#X connect 16 0 18 0;
#X connect 19 0 12 0;
#X connect 20 0 14 0;
#X connect 22 0 23 0;
#X connect 22 0 24 1;
#X connect 24 0 10 0;
#X restore 418 335 pd displayTime;
#N canvas 5 33 484 486 speed 0;
#X obj 43 82 r \$0-speed;
#X obj 172 229 loadbang;
#X obj 114 393 outlet;
#X obj 114 349 +;
#X floatatom 124 371 5 0 0 0 - - -, f 5;
#X msg 172 250 6;
#X text 89 46 normal speed;
#X obj 56 222 r \$0-speedChoice;
#X obj 334 114 r \$0-randomSpeed;
#X floatatom 349 158 5 0 0 0 - - -, f 5;
#X obj 321 275 bng 15 250 50 0 empty empty empty 17 7 0 10 -262144
-1 -1;
#X text 331 60 random speed;
#X obj 334 136 expr (13-$f1)*100;
#X obj 310 298 random 13;
#X obj 310 319 s \$0-speedChoice;
#X floatatom 51 131 5 0 0 0 - - -, f 5;
#X obj 43 297 expr $f1/8+0.25;
#X obj 43 103 + 0;
#X obj 43 251 moses 6;
#X obj 172 297 expr ($f1-4)*0.5;
#X obj 310 90 r \$0-rndSpeedTgl;
#X obj 310 252 metro 700;
#X obj 286 224 f;
#X obj 334 187 t b f;
#X connect 0 0 17 0;
#X connect 1 0 5 0;
#X connect 3 0 2 0;
#X connect 3 0 4 0;
#X connect 5 0 19 0;
#X connect 7 0 18 0;
#X connect 8 0 12 0;
#X connect 12 0 9 0;
#X connect 12 0 23 0;
#X connect 13 0 14 0;
#X connect 16 0 3 0;
#X connect 17 0 15 0;
#X connect 17 0 18 0;
#X connect 18 0 16 0;
#X connect 18 1 19 0;
#X connect 19 0 3 0;
#X connect 20 0 21 0;
#X connect 20 0 22 1;
#X connect 21 0 10 0;
#X connect 21 0 13 0;
#X connect 22 0 21 0;
#X connect 23 0 22 0;
#X connect 23 1 21 1;
#X restore 190 121 pd speed;
#X obj 288 571 outlet~;
#X obj 304 437 r \$0-playback;
#X obj 288 498 *~;
#X obj 250 36 expr $f1*-2+1;
#X obj 144 528 s \$0-pulse;
#X obj 76 234 r \$0-pulse;
#X obj 288 161 * 1, f 5;
#X obj 250 66 f;
#X floatatom 214 95 5 0 0 0 - - -, f 5;
#X obj 144 459 snapshot~;
#X obj 70 422 metro 40;
#X floatatom 106 385 5 0 0 0 - - -, f 5;
#N canvas 69 77 450 300 readRamp~ 0;
#X obj 93 22 inlet freq;
#X obj 204 22 inlet phase;
#X obj 152 241 outlet~;
#X obj 106 101 phasor~;
#N canvas 86 115 569 400 pingpong~ 0;
#X obj 140 30 inlet;
#X obj 309 45 r \$0-samplePingpong;
#X obj 309 66 switch~;
#X obj 140 124 phasor~ 1;
#X floatatom 103 58 5 0 0 0 - - -, f 5;
#X obj 140 145 *~ 2;
#X obj 140 166 -~ 1;
#X obj 141 191 clip~ 0 1;
#X obj 220 124 phasor~ 1;
#X obj 220 145 *~ 2;
#X obj 220 166 -~ 1;
#X obj 220 191 clip~ 0 1;
#X obj 220 95 * -1;
#X obj 240 36 inlet;
#X obj 177 231 outlet~;
#X obj 140 51 / 2;
#X connect 0 0 4 0;
#X connect 0 0 15 0;
#X connect 1 0 2 0;
#X connect 3 0 5 0;
#X connect 5 0 6 0;
#X connect 6 0 7 0;
#X connect 7 0 14 0;
#X connect 8 0 9 0;
#X connect 9 0 10 0;
#X connect 10 0 11 0;
#X connect 11 0 14 0;
#X connect 12 0 8 0;
#X connect 13 0 8 1;
#X connect 13 0 3 1;
#X connect 15 0 12 0;
#X connect 15 0 3 0;
#X restore 161 101 pd pingpong~;
#X obj 257 155 r \$0-samplePingpong;
#X obj 209 136 loadbang;
#X msg 209 157 0;
#X obj 149 194 switch.oct~;
#X connect 0 0 3 0;
#X connect 0 0 4 0;
#X connect 1 0 3 1;
#X connect 1 0 4 1;
#X connect 3 0 8 0;
#X connect 4 0 8 1;
#X connect 5 0 8 2;
#X connect 6 0 7 0;
#X connect 7 0 8 2;
#X connect 8 0 2 0;
#X restore 288 285 pd readRamp~;
#X obj 367 489 switch~;
#X obj 304 463 gently.oct~;
#X connect 0 0 5 0;
#X connect 1 0 39 1;
#X connect 4 0 33 0;
#X connect 4 1 33 1;
#X connect 5 0 29 0;
#X connect 6 0 3 0;
#X connect 6 0 39 0;
#X connect 7 0 6 0;
#X connect 7 1 6 1;
#X connect 8 0 7 0;
#X connect 9 0 18 0;
#X connect 9 0 25 1;
#X connect 10 0 0 1;
#X connect 11 0 30 0;
#X connect 12 0 19 0;
#X connect 13 0 37 0;
#X connect 14 0 12 0;
#X connect 15 0 14 0;
#X connect 15 0 13 0;
#X connect 17 0 14 0;
#X connect 18 0 1 0;
#X connect 19 0 36 0;
#X connect 20 0 19 1;
#X connect 23 0 12 1;
#X connect 24 0 16 0;
#X connect 24 0 31 0;
#X connect 26 0 33 0;
#X connect 28 0 41 0;
#X connect 29 0 27 0;
#X connect 30 0 2 0;
#X connect 30 0 34 0;
#X connect 32 0 17 0;
#X connect 33 0 6 0;
#X connect 34 0 4 0;
#X connect 34 0 23 1;
#X connect 34 0 35 0;
#X connect 36 0 22 0;
#X connect 36 0 24 0;
#X connect 37 0 36 0;
#X connect 38 0 37 1;
#X connect 39 0 23 0;
#X connect 39 0 0 0;
#X connect 39 0 25 0;
#X connect 41 0 29 1;
#X connect 41 1 40 0;
#X restore 236 96 pd playback;
#N canvas 79 109 450 300 filter 0;
#N canvas 5 28 753 568 filter 0;
#X obj 95 532 outlet~;
#X obj 30 22 inlet~;
#X obj 49 74 r \$0-filterFreq;
#X floatatom 59 121 8 0 0 0 - - -, f 8;
#X obj 254 89 r \$0-filterBW;
#X obj 557 229 metro;
#X obj 584 148 r \$0-filterBW;
#X obj 557 250 random 100;
#X obj 557 271 / 100;
#X obj 584 172 expr (1-$f1)*900+100;
#X obj 254 210 spigot;
#X obj 287 179 == 0;
#X obj 30 332 vcf~ 10;
#X obj 557 332 s \$0-filterFreq;
#X obj 49 276 pack f 10;
#X text 584 102 random freq;
#X text 83 46 static freq;
#X obj 49 297 vline~;
#X obj 109 435 r \$0-filterActive;
#X obj 122 460 tgl 15 0 empty empty empty 17 7 0 10 -262144 -1 -1 1
1;
#X obj 94 504 *~;
#X text 258 43 bandwidth - Q;
#X obj 109 479 gently.oct~;
#X obj 172 504 switch~;
#X obj 399 115 r \$0-filterRandom;
#N canvas 171 174 333 300 updateGUI 0;
#X obj 61 42 inlet;
#X obj 94 134 r \$0-filterRandom;
#X obj 61 156 spigot;
#X obj 61 177 line;
#X obj 61 103 pack f f;
#X msg 61 211 list /filterFreq set \$1;
#X obj 106 75 r \$0-freqRampTime;
#X obj 61 232 setSampleGUI \$1;
#X connect 0 0 4 0;
#X connect 1 0 2 1;
#X connect 2 0 3 0;
#X connect 3 0 5 0;
#X connect 4 0 2 0;
#X connect 5 0 7 0;
#X connect 6 0 4 1;
#X restore 566 296 pd updateGUI;
#N canvas 204 180 493 327 switchLogic 0;
#X obj 182 12 inlet;
#X obj 322 108 r \$0-filterBW;
#X obj 307 200 f;
#X obj 322 175 spigot;
#X msg 100 108 10;
#X obj 307 73 sel 1;
#X obj 81 73 sel 0;
#X obj 307 221 s \$0-filterBW;
#X obj 100 134 s \$0-freqRampInterval;
#X obj 81 165 v \$0-filterBW;
#X msg 81 186 list /filterBW set \$1;
#X obj 81 210 setSampleGUI \$1;
#X obj 274 246 v \$0-filterBW;
#X connect 0 0 5 0;
#X connect 0 0 6 0;
#X connect 0 0 3 1;
#X connect 1 0 3 0;
#X connect 2 0 7 0;
#X connect 2 0 12 0;
#X connect 3 0 2 1;
#X connect 4 0 8 0;
#X connect 5 0 2 0;
#X connect 6 0 4 0;
#X connect 6 0 9 0;
#X connect 9 0 10 0;
#X connect 10 0 11 0;
#X restore 399 227 pd switchLogic;
#X floatatom 254 231 5 0 0 0 - - -, f 5;
#X obj 254 110 expr $f1*100+1;
#X obj 49 95 expr pow(100 \, $f1)*50;
#X obj 94 403 *~ 10;
#X obj 531 61 r \$0-filterActive;
#X obj 531 162 +;
#X obj 531 183 == 2;
#X obj 531 137 t b f;
#X floatatom 110 254 5 0 0 0 - - -, f 5;
#X obj 349 326 r \$0-filterLevel;
#X obj 349 347 t b f;
#X obj 334 372 expr $f1*$f2+1;
#X obj 597 201 s \$0-freqRampInterval;
#X obj 334 307 r \$0-freqRampInterval;
#X obj 334 393 s \$0-freqRampTime;
#X obj 100 232 r \$0-freqRampTime;
#X floatatom 293 339 5 0 0 0 - - -, f 5;
#X connect 1 0 12 0;
#X connect 2 0 29 0;
#X connect 4 0 28 0;
#X connect 5 0 7 0;
#X connect 6 0 9 0;
#X connect 7 0 8 0;
#X connect 8 0 13 0;
#X connect 8 0 25 0;
#X connect 9 0 5 1;
#X connect 9 0 39 0;
#X connect 10 0 12 2;
#X connect 10 0 27 0;
#X connect 11 0 10 1;
#X connect 12 0 30 0;
#X connect 14 0 17 0;
#X connect 17 0 12 1;
#X connect 18 0 19 0;
#X connect 18 0 22 0;
#X connect 20 0 0 0;
#X connect 22 0 20 1;
#X connect 22 1 23 0;
#X connect 24 0 11 0;
#X connect 24 0 26 0;
#X connect 24 0 32 0;
#X connect 28 0 10 0;
#X connect 29 0 3 0;
#X connect 29 0 14 0;
#X connect 30 0 20 0;
#X connect 31 0 34 0;
#X connect 32 0 33 0;
#X connect 33 0 5 0;
#X connect 34 0 32 0;
#X connect 34 1 32 1;
#X connect 36 0 37 0;
#X connect 37 0 38 0;
#X connect 37 1 38 1;
#X connect 38 0 41 0;
#X connect 40 0 38 0;
#X connect 40 0 43 0;
#X connect 42 0 14 1;
#X connect 42 0 35 0;
#X restore 110 130 pd filter;
#X obj 47 220 outlet~;
#X obj 47 29 inlet~;
#X obj 110 29 r \$0-filterActive;
#X obj 47 75 spigot.oct~;
#X obj 110 172 balance.mmb~;
#X text 167 102 balance loudness;
#X connect 0 0 5 0;
#X connect 2 0 4 0;
#X connect 3 0 4 1;
#X connect 4 0 1 0;
#X connect 4 1 0 0;
#X connect 4 1 5 1;
#X connect 5 0 1 0;
#X restore 236 123 pd filter;
#N canvas 110 20 596 418 speedSlider 0;
#X obj 317 345 s \$0-speed;
#X obj 105 31 r \$0-speedSlider;
#X obj 362 86 r \$0-rndSpeedTgl;
#X obj 317 130 spigot 1;
#X obj 362 108 == 0;
#X msg 332 277 list /sampleSpeed set \$1;
#X obj 332 298 setSampleGUI \$1;
#X obj 332 202 f;
#X obj 332 177 sel 0;
#X obj 343 253 s \$0-speed;
#X obj 30 134 spigot;
#X obj 30 304 s \$0-randomSpeed;
#X text 375 176 set last speed value and slider;
#X obj 46 189 sel 1;
#X msg 46 244 list /sampleSpeed set \$1;
#X obj 46 265 setSampleGUI \$1;
#X obj 46 210 f;
#X obj 332 156 r \$0-rndSpeedTgl;
#X obj 63 111 r \$0-rndSpeedTgl;
#X obj 46 166 r \$0-rndSpeedTgl;
#X text 87 186 set last time value and slider;
#X connect 1 0 10 0;
#X connect 1 0 3 0;
#X connect 2 0 4 0;
#X connect 3 0 0 0;
#X connect 3 0 7 1;
#X connect 4 0 3 1;
#X connect 5 0 6 0;
#X connect 7 0 9 0;
#X connect 7 0 5 0;
#X connect 8 0 7 0;
#X connect 10 0 11 0;
#X connect 10 0 16 1;
#X connect 13 0 16 0;
#X connect 14 0 15 0;
#X connect 16 0 14 0;
#X connect 17 0 8 0;
#X connect 18 0 10 1;
#X connect 19 0 13 0;
#X restore 47 298 pd speedSlider;
#N canvas 0 50 450 300 tableSize 0;
#X obj 49 42 loadbang;
#X obj 68 132 samplerate~;
#X obj 49 63 delay 100;
#X obj 49 165 f \$1;
#X obj 49 186 pack f f;
#X msg 49 208 \; /sample-\$1 resize \$2;
#X text 48 24 set table size once;
#X obj 94 158 * 60;
#X obj 115 108 v sampleSeconds;
#X obj 49 84 t b b b;
#X connect 0 0 2 0;
#X connect 1 0 7 0;
#X connect 2 0 9 0;
#X connect 3 0 4 0;
#X connect 4 0 5 0;
#X connect 7 0 4 1;
#X connect 8 0 7 1;
#X connect 9 0 3 0;
#X connect 9 1 1 0;
#X connect 9 2 8 0;
#X restore 44 115 pd tableSize;
#X connect 5 0 4 0;
#X connect 7 0 12 0;
#X connect 8 0 11 0;
#X connect 8 1 11 1;
#X connect 10 0 9 0;
#X connect 10 0 7 0;
#X connect 10 0 12 0;
#X connect 11 0 13 0;
#X connect 11 1 14 0;
#X connect 12 0 8 0;
#X connect 12 1 8 1;
#X connect 15 0 16 0;
#X connect 16 0 10 0;
