#N canvas 24 26 481 577 10;
#X obj 11 5 cnv 15 450 550 empty empty SAMPLE_PLAYER 20 12 0 14 -192294
-66577 0;
#N canvas 11 19 845 610 record 1;
#X msg 415 275 stop;
#X obj 639 109 timer;
#X floatatom 653 140 8 0 0 0 - - -, f 8;
#X obj 654 490 samplerate~;
#X obj 639 372 / 1000;
#X obj 639 517 *;
#X obj 66 385 tabwrite~ /sample-\$1;
#X obj 108 157 sel 1 0;
#X obj 651 412 expr 1/$f1;
#X obj 651 433 s \$0-rampFreq;
#X obj 81 29 r \$0-recording;
#X obj 66 301 *~;
#X obj 255 110 t b b;
#X msg 81 255 \$1 10;
#X obj 364 94 del 10;
#X msg 398 377 \; /sample-\$1 normalize -1 1;
#X obj 639 554 s \$0-sampleSize;
#X obj 649 340 s \$0-sampleLength;
#N canvas 94 96 450 355 startPos 0;
#X obj 47 26 inlet;
#X obj 278 217 samplerate~;
#X obj 182 30 r \$0-playback;
#X obj 149 85 spigot;
#X obj 164 108 r \$0-curPos;
#X obj 149 136 f;
#X obj 149 299 outlet;
#X obj 149 243 expr int($f1*$f2/1000);
#X floatatom 159 269 10 0 0 0 - - -, f 10;
#X obj 47 107 spigot 1;
#X obj 92 85 == 0;
#X floatatom 181 133 5 0 0 0 - - -, f 5;
#X msg 47 128 0;
#X obj 278 191 loadbang;
#X connect 0 0 3 0;
#X connect 0 0 9 0;
#X connect 1 0 7 1;
#X connect 2 0 3 1;
#X connect 2 0 10 0;
#X connect 3 0 5 0;
#X connect 4 0 5 1;
#X connect 4 0 11 0;
#X connect 5 0 7 0;
#X connect 7 0 8 0;
#X connect 7 0 6 0;
#X connect 9 0 12 0;
#X connect 10 0 9 1;
#X connect 12 0 6 0;
#X connect 13 0 1 0;
#X restore 255 200 pd startPos;
#X msg 255 221 start \$1;
#N canvas 64 17 374 562 autoStop 0;
#X obj 103 232 inlet stopped;
#X obj 82 28 inlet started;
#X obj 49 285 spigot;
#X msg 103 258 0;
#X msg 82 54 1;
#X obj 76 98 v sampleSeconds;
#X obj 76 119 * 1000;
#X obj 49 77 t b b;
#X obj 49 221 del, f 5;
#X obj 91 152 r recLength;
#X obj 91 173 expr ($f1+1)/10;
#X obj 76 200 *;
#X obj 49 466 setSampleGUI \$1;
#X msg 49 443 list /sampleRec 0;
#X obj 49 318 t b b b;
#X obj 88 344 pack 0 \$1;
#X obj 88 369 saveStatus /sampleRec \$1;
#X obj 68 401 s \$0-stopRec;
#X connect 0 0 3 0;
#X connect 1 0 4 0;
#X connect 1 0 7 0;
#X connect 2 0 14 0;
#X connect 3 0 2 1;
#X connect 4 0 2 1;
#X connect 5 0 6 0;
#X connect 6 0 11 0;
#X connect 7 0 8 0;
#X connect 7 1 5 0;
#X connect 8 0 2 0;
#X connect 9 0 10 0;
#X connect 10 0 11 1;
#X connect 11 0 8 1;
#X connect 13 0 12 0;
#X connect 14 0 13 0;
#X connect 14 1 17 0;
#X connect 14 2 15 0;
#X connect 15 0 16 0;
#X restore 282 159 pd autoStop;
#X obj 81 135 t f f;
#N canvas 187 26 450 266 source 0;
#X obj 165 211 outlet~;
#X obj 42 23 adc~ 1;
#X obj 166 23 r~ mixOut;
#X obj 180 44 r \$0-sourceAll;
#X obj 42 69 *~ 1;
#X obj 165 69 *~;
#X obj 63 44 r \$0-sourceMic;
#X obj 320 129 r sampleSelect;
#X obj 320 151 == \$1;
#X obj 197 177 monitor /inputMonitor;
#N canvas 0 50 608 542 sourceTracks 0;
#X obj 79 491 outlet~;
#X obj 72 44 r \$0-gridSum;
#X floatatom 40 60 5 0 0 0 - - -, f 5;
#X obj 239 105 *~, f 5;
#X obj 239 145 *~, f 5;
#X obj 239 185 *~, f 5;
#X obj 239 225 *~, f 5;
#X obj 239 265 *~, f 5;
#X obj 239 305 *~, f 5;
#X obj 239 345 *~, f 5;
#X obj 239 385 *~, f 5;
#X obj 239 425 *~, f 5;
#X obj 406 88 r~ output-1;
#X obj 406 128 r~ output-2;
#X obj 405 168 r~ output-3;
#X obj 406 208 r~ output-4;
#X obj 407 248 r~ output-5;
#X obj 406 288 r~ output-6;
#X obj 406 328 r~ output-7;
#X obj 406 368 r~ output-8;
#X obj 405 408 r~ output-9;
#X obj 239 165 expr if($f1&4 \, 1 \, 0);
#X obj 239 85 expr if($f1&1 \, 1 \, 0);
#X obj 239 125 expr if($f1&2 \, 1 \, 0);
#X obj 239 205 expr if($f1&8 \, 1 \, 0);
#X obj 239 245 expr if($f1&16 \, 1 \, 0);
#X obj 239 285 expr if($f1&32 \, 1 \, 0);
#X obj 239 325 expr if($f1&64 \, 1 \, 0);
#X obj 239 365 expr if($f1&128 \, 1 \, 0);
#X obj 239 405 expr if($f1&256 \, 1 \, 0);
#X connect 1 0 2 0;
#X connect 1 0 21 0;
#X connect 1 0 22 0;
#X connect 1 0 23 0;
#X connect 1 0 24 0;
#X connect 1 0 25 0;
#X connect 1 0 26 0;
#X connect 1 0 27 0;
#X connect 1 0 28 0;
#X connect 1 0 29 0;
#X connect 3 0 0 0;
#X connect 4 0 0 0;
#X connect 5 0 0 0;
#X connect 6 0 0 0;
#X connect 7 0 0 0;
#X connect 8 0 0 0;
#X connect 9 0 0 0;
#X connect 10 0 0 0;
#X connect 11 0 0 0;
#X connect 12 0 3 1;
#X connect 13 0 4 1;
#X connect 14 0 5 1;
#X connect 15 0 6 1;
#X connect 16 0 7 1;
#X connect 17 0 8 1;
#X connect 18 0 9 1;
#X connect 19 0 10 1;
#X connect 20 0 11 1;
#X connect 21 0 5 0;
#X connect 22 0 3 0;
#X connect 23 0 4 0;
#X connect 24 0 6 0;
#X connect 25 0 7 0;
#X connect 26 0 8 0;
#X connect 27 0 9 0;
#X connect 28 0 10 0;
#X connect 29 0 11 0;
#X restore 302 32 pd sourceTracks;
#X obj 302 75 *~;
#N canvas 0 50 450 300 switch 0;
#X obj 64 60 r \$0-sourceAll;
#X obj 49 32 r \$0-sourceMic;
#X obj 49 120 +;
#X obj 64 91 t b f;
#X obj 49 141 == 0;
#X obj 49 183 outlet;
#X connect 0 0 3 0;
#X connect 1 0 2 0;
#X connect 2 0 4 0;
#X connect 3 0 2 0;
#X connect 3 1 2 1;
#X connect 4 0 5 0;
#X restore 317 53 pd switch;
#X obj 165 129 hip~ 50;
#X connect 1 0 4 0;
#X connect 2 0 5 0;
#X connect 3 0 5 1;
#X connect 4 0 13 0;
#X connect 5 0 13 0;
#X connect 6 0 4 1;
#X connect 7 0 8 0;
#X connect 8 0 9 1;
#X connect 10 0 11 0;
#X connect 11 0 13 0;
#X connect 12 0 11 1;
#X connect 13 0 0 0;
#X connect 13 0 9 0;
#X restore 66 2 pd source;
#N canvas 161 147 450 367 autoPlay 0;
#X obj 65 23 inlet;
#X obj 110 54 r \$0-playback;
#X obj 110 75 == 0;
#X obj 65 118 spigot 1;
#X obj 65 297 s \$0-playback;
#X msg 65 169 1;
#X obj 120 237 f \$1;
#X obj 81 201 t f b;
#X obj 261 310 s toGUI;
#X obj 280 204 f \$1;
#X obj 280 233 ==;
#X obj 316 204 v selected;
#X obj 261 263 spigot;
#X obj 261 172 t b b b;
#X text 258 138 switch toggle on if sample is selected, f 21;
#X msg 261 286 list /sampleLoop 1;
#X obj 81 273 saveStatus /sampleLoop \$1;
#X connect 0 0 3 0;
#X connect 1 0 2 0;
#X connect 2 0 3 1;
#X connect 3 0 5 0;
#X connect 3 0 13 0;
#X connect 5 0 4 0;
#X connect 5 0 7 0;
#X connect 6 0 16 1;
#X connect 7 0 16 0;
#X connect 7 1 6 0;
#X connect 9 0 10 0;
#X connect 10 0 12 1;
#X connect 11 0 10 1;
#X connect 12 0 15 0;
#X connect 13 0 12 0;
#X connect 13 1 9 0;
#X connect 13 2 11 0;
#X connect 15 0 8 0;
#X restore 383 508 pd autoPlay;
#X obj 684 171 r \$0-playback;
#X obj 684 192 == 0;
#X text 699 217 set duration if not playing, f 14;
#X obj 639 220 spigot 1;
#X obj 663 250 t f b;
#X obj 690 271 v sampleSeconds;
#X obj 690 292 * 1000;
#X obj 639 319 min;
#X obj 81 277 line~;
#X obj 666 71 r \$0-stopRec;
#X obj 127 201 s \$0-stopRec;
#X obj 364 67 r \$0-stopRec;
#X obj 108 221 s \$0-startRec;
#X obj 639 46 r \$0-startRec;
#X obj 255 84 r \$0-startRec;
#X obj 383 477 spigot;
#X obj 416 432 r \$0-startRec;
#X msg 416 453 1;
#X msg 364 423 0, f 2;
#X obj 654 468 loadbang;
#X msg 477 117 list /sourceTracks 0;
#X obj 477 138 s toGUI;
#X obj 466 248 s toGUI;
#X msg 466 227 list /sample-\$1 refresh;
#X obj 466 200 \$1;
#X obj 140 557 s toGUI;
#X obj 140 462 r \$0-sampleSize;
#X obj 140 483 pack f \$1;
#X msg 140 510 list /sample-\$2 range 0 \$1;
#X obj 398 352 \$1;
#X obj 364 218 t b b b b;
#X obj 81 110 pipe;
#X obj 102 70 * 100;
#X obj 102 49 r recDelay;
#X connect 0 0 6 0;
#X connect 1 0 2 0;
#X connect 1 0 27 0;
#X connect 3 0 5 1;
#X connect 4 0 8 0;
#X connect 4 0 5 0;
#X connect 5 0 16 0;
#X connect 7 0 36 0;
#X connect 7 1 34 0;
#X connect 8 0 9 0;
#X connect 10 0 55 0;
#X connect 11 0 6 0;
#X connect 12 0 18 0;
#X connect 12 1 20 0;
#X connect 13 0 32 0;
#X connect 14 0 20 1;
#X connect 14 0 54 0;
#X connect 18 0 19 0;
#X connect 19 0 6 0;
#X connect 21 0 13 0;
#X connect 21 1 7 0;
#X connect 22 0 11 0;
#X connect 24 0 25 0;
#X connect 25 0 27 1;
#X connect 27 0 28 0;
#X connect 27 0 31 0;
#X connect 28 1 29 0;
#X connect 29 0 30 0;
#X connect 30 0 31 1;
#X connect 31 0 4 0;
#X connect 31 0 17 0;
#X connect 32 0 11 1;
#X connect 33 0 1 1;
#X connect 33 0 48 0;
#X connect 35 0 14 0;
#X connect 37 0 1 0;
#X connect 37 0 44 0;
#X connect 38 0 12 0;
#X connect 39 0 23 0;
#X connect 40 0 41 0;
#X connect 41 0 39 1;
#X connect 42 0 39 1;
#X connect 43 0 3 0;
#X connect 44 0 45 0;
#X connect 47 0 46 0;
#X connect 48 0 47 0;
#X connect 50 0 51 0;
#X connect 51 0 52 0;
#X connect 52 0 49 0;
#X connect 53 0 15 0;
#X connect 54 0 42 0;
#X connect 54 1 39 0;
#X connect 54 2 53 0;
#X connect 54 3 0 0;
#X connect 55 0 21 0;
#X connect 56 0 55 1;
#X connect 57 0 56 0;
#X restore 48 247 pd record;
#N canvas 161 165 984 344 status 1;
#X obj 128 81 f \$1;
#X obj 128 61 bang;
#X obj 345 309 s toGUI;
#X obj 57 101 delay 100;
#X obj 57 142 pack f f f;
#X obj 406 33 r \$0-playback;
#X obj 406 94 f \$1;
#X obj 423 143 pack f f f;
#X obj 406 55 t b f;
#X obj 650 168 f \$1;
#X obj 667 221 pack f f f;
#X obj 650 129 t b f;
#X msg 667 253 list /gridPulse \$1 \$2 \$3;
#X obj 128 40 r \$0-pulse;
#X obj 128 101 nToXY;
#X obj 406 115 nToXY;
#X obj 650 190 nToXY;
#X obj 208 144 pack f f;
#X msg 423 177 list /gridActive set \$1 \$2 \$3;
#X msg 28 172 list /gridPulse \$2 \$3 0;
#X msg 208 172 list /gridPulse \$1 \$2 1;
#X obj 666 69 r \$0-stopRec;
#X obj 650 17 r \$0-startRec;
#X msg 650 38 1;
#X msg 666 90 0;
#X connect 0 0 14 0;
#X connect 1 0 0 0;
#X connect 1 0 3 0;
#X connect 3 0 4 0;
#X connect 4 0 19 0;
#X connect 5 0 8 0;
#X connect 6 0 15 0;
#X connect 7 0 18 0;
#X connect 8 0 6 0;
#X connect 8 1 7 2;
#X connect 9 0 16 0;
#X connect 10 0 12 0;
#X connect 11 0 9 0;
#X connect 11 1 10 2;
#X connect 12 0 2 0;
#X connect 13 0 1 0;
#X connect 14 0 4 1;
#X connect 14 0 17 0;
#X connect 14 1 4 2;
#X connect 14 1 17 1;
#X connect 15 0 7 0;
#X connect 15 1 7 1;
#X connect 16 0 10 0;
#X connect 16 1 10 1;
#X connect 17 0 20 0;
#X connect 18 0 2 0;
#X connect 19 0 2 0;
#X connect 20 0 2 0;
#X connect 21 0 24 0;
#X connect 22 0 23 0;
#X connect 23 0 11 0;
#X connect 24 0 11 0;
#X restore 48 209 pd status;
#X obj 44 93 table /sample-\$1;
#N canvas 31 49 450 249 router 0;
#X obj 124 28 r fromGUI;
#N canvas 215 150 341 242 filterData 0;
#X obj 88 39 inlet;
#X obj 88 69 list trim;
#X obj 121 125 v selected;
#X obj 88 168 spigot;
#X obj 121 146 == \$1;
#X obj 88 189 outlet;
#X obj 88 93 t a b, f 6;
#X connect 0 0 1 0;
#X connect 1 0 6 0;
#X connect 2 0 4 0;
#X connect 3 0 5 0;
#X connect 4 0 3 1;
#X connect 6 0 3 0;
#X connect 6 1 2 0;
#X restore 124 62 pd filterData;
#N canvas 21 82 857 364 playback 0;
#X obj 24 170 s \$0-playback;
#X obj 108 195 s \$0-volume;
#X obj 277 175 s \$0-reverse;
#X obj 24 37 inlet;
#X obj 446 210 s \$0-samplePan;
#X obj 530 190 s \$0-samplePingpong;
#X obj 192 195 s \$0-speedSlider;
#X obj 361 230 s \$0-rndSpeedTgl;
#X obj 24 135 route /sampleLoop /sampleVolume /sampleSpeed /sampleReverse
/randomSpeed /samplePan /samplePingpong, f 99;
#X obj 34 68 route /sampleFade;
#X obj 34 100 s \$0-sampleFade;
#X connect 3 0 8 0;
#X connect 3 0 9 0;
#X connect 8 0 0 0;
#X connect 8 1 1 0;
#X connect 8 2 6 0;
#X connect 8 3 2 0;
#X connect 8 4 7 0;
#X connect 8 5 4 0;
#X connect 8 6 5 0;
#X connect 9 0 10 0;
#X restore 108 124 pd playback;
#N canvas 0 50 450 300 record 0;
#X obj 195 179 s \$0-recording;
#X obj 43 219 s \$0-sourceAll;
#X obj 119 199 s \$0-sourceMic;
#X obj 43 41 inlet;
#N canvas 443 103 672 455 sourceTracks 0;
#X obj 407 130 sel 0 1;
#N canvas 228 96 332 417 displayActive 0;
#X obj 58 42 inlet;
#X obj 85 157 expr pow(2 \, $f1);
#N canvas 0 50 450 300 count0to8 0;
#X obj 38 128 until;
#X obj 38 174 f;
#X obj 84 174 + 1;
#X obj 38 68 t b b, f 8;
#X obj 38 37 inlet;
#X obj 84 208 outlet;
#X msg 83 128 -1;
#X msg 38 99 9;
#X connect 0 0 1 0;
#X connect 1 0 2 0;
#X connect 2 0 1 1;
#X connect 2 0 5 0;
#X connect 3 0 7 0;
#X connect 3 1 6 0;
#X connect 4 0 3 0;
#X connect 6 0 1 1;
#X connect 7 0 0 0;
#X restore 58 105 pd count0to8;
#X obj 58 74 t b f, f 20;
#X obj 58 130 t f f;
#X obj 85 186 expr if($f1&$f2 \, 1 \, 0);
#X obj 58 239 nToXY;
#X obj 58 263 pack f f f;
#X obj 58 216 + 1;
#X msg 58 304 list /gridSelect set \$1 \$2 \$3;
#X obj 58 335 s toGUI;
#X connect 0 0 3 0;
#X connect 1 0 5 0;
#X connect 2 0 4 0;
#X connect 3 0 2 0;
#X connect 3 1 5 1;
#X connect 4 0 8 0;
#X connect 4 1 1 0;
#X connect 5 0 7 2;
#X connect 6 0 7 0;
#X connect 6 1 7 1;
#X connect 7 0 9 0;
#X connect 8 0 6 0;
#X connect 9 0 10 0;
#X restore 426 224 pd displayActive;
#X obj 81 203 unpack f f f;
#X obj 81 232 xyToN;
#X obj 407 307 setSampleGUI \$1;
#X floatatom 99 276 5 0 0 0 - - -, f 5;
#X obj 81 253 expr pow(2 \, $f1-1);
#X obj 81 329 expr if($f2==0 \, $f3-$f1 \, $f3+$f1);
#X floatatom 45 354 5 0 0 0 - - -, f 5;
#X obj 276 299 f;
#X obj 81 135 t a b;
#X msg 407 286 list /gridSelect clear;
#X obj 81 389 saveStatus /sourceTracks \$1;
#X obj 81 111 spigot;
#X floatatom 433 202 5 0 0 0 - - -, f 5;
#X obj 426 179 tabread /sourceTracks;
#X obj 426 155 expr \$1-1;
#X obj 380 68 t f f;
#X text 496 154 retrieve last configuration;
#X obj 92 356 s \$0-gridSum;
#X obj 291 194 r \$0-gridSum;
#X obj 81 28 inlet gridSelect;
#X obj 380 47 inlet sourcerTracks toggle;
#X connect 0 0 11 0;
#X connect 0 1 16 0;
#X connect 2 0 3 0;
#X connect 2 1 3 1;
#X connect 2 2 7 1;
#X connect 3 0 6 0;
#X connect 6 0 5 0;
#X connect 6 0 7 0;
#X connect 7 0 8 0;
#X connect 7 0 12 0;
#X connect 7 0 19 0;
#X connect 9 0 7 2;
#X connect 10 0 2 0;
#X connect 10 1 9 0;
#X connect 11 0 4 0;
#X connect 13 0 10 0;
#X connect 15 0 14 0;
#X connect 15 0 1 0;
#X connect 15 0 9 1;
#X connect 16 0 15 0;
#X connect 17 0 13 1;
#X connect 17 1 0 0;
#X connect 20 0 9 1;
#X connect 21 0 13 0;
#X connect 22 0 17 0;
#X restore 271 149 pd sourceTracks;
#X obj 43 111 route /sourceAll /sourceMic /sampleRec /gridSelect /sourceTracks
, f 64;
#X connect 3 0 5 0;
#X connect 5 0 1 0;
#X connect 5 1 2 0;
#X connect 5 2 0 0;
#X connect 5 3 4 0;
#X connect 5 4 4 1;
#X restore 40 124 pd record;
#N canvas 68 79 553 290 delay 0;
#X obj 21 222 s \$0-delayTime;
#X obj 97 202 s \$0-delayFeedback;
#X obj 174 182 s \$0-delayLevel;
#X obj 250 162 s \$0-delayOn;
#X obj 327 142 s \$0-delayRandom;
#X obj 21 41 inlet;
#X obj 21 81 route /delayTime /delayFeedback /delayLevel /delayOn /delayRandom
/delayGlide, f 77;
#X obj 403 122 s \$0-delayGlide;
#X connect 5 0 6 0;
#X connect 6 0 0 0;
#X connect 6 1 1 0;
#X connect 6 2 2 0;
#X connect 6 3 3 0;
#X connect 6 4 4 0;
#X connect 6 5 7 0;
#X restore 188 124 pd delay;
#N canvas 766 273 564 300 filter 0;
#X obj 21 41 inlet;
#X obj 21 212 s \$0-filterActive;
#X obj 100 192 s \$0-filterFreq;
#X obj 259 152 s \$0-filterBW;
#X obj 339 132 s \$0-filterRandom;
#X obj 21 81 route /filterActive /filterFreq /filterRate /filterBW
/filterRandom /filterGlide, f 80;
#X obj 418 112 s \$0-filterGlide;
#X obj 180 172 s \$0-filterRate;
#X connect 0 0 5 0;
#X connect 5 0 1 0;
#X connect 5 1 2 0;
#X connect 5 2 7 0;
#X connect 5 3 3 0;
#X connect 5 4 4 0;
#X connect 5 5 6 0;
#X restore 248 124 pd filter;
#N canvas 91 198 564 300 fx 0;
#X obj 21 41 inlet;
#X obj 21 242 s \$0-sendReverb;
#X obj 120 222 s \$0-pitchShifter;
#X obj 220 150 sel 1;
#X obj 220 192 s toGUI;
#X msg 220 171 list /pitchShifter 0.5;
#X obj 320 145 s \$0-overDrive;
#X obj 21 81 route /sendReverb /pitchShifter /pitchReset /overDrive
, f 67;
#X connect 0 0 7 0;
#X connect 3 0 5 0;
#X connect 5 0 4 0;
#X connect 7 0 1 0;
#X connect 7 1 2 0;
#X connect 7 2 3 0;
#X connect 7 3 6 0;
#X restore 318 124 pd fx;
#X connect 0 0 1 0;
#X connect 1 0 3 0;
#X connect 1 0 2 0;
#X connect 1 0 4 0;
#X connect 1 0 5 0;
#X connect 1 0 6 0;
#X restore 48 184 pd router;
#N canvas 45 72 391 436 output 0;
#X obj 117 20 r \$0-volume;
#X obj 258 345 r sampleSelect;
#X obj 258 367 == \$1;
#X obj 169 275 *~;
#X obj 169 364 outlet~;
#X obj 184 215 inlet~;
#X msg 117 67 \$1 10;
#X obj 50 275 *~;
#X obj 50 364 outlet~;
#X obj 50 215 inlet~;
#X obj 117 207 line~;
#X obj 117 44 expr (pow(101 \, $f1)-1)/100;
#X obj 129 389 monitor /sampleMonitor;
#N canvas 18 14 593 648 fade 0;
#X obj 183 614 outlet;
#X obj 97 20 r \$0-sampleFade;
#X obj 97 74 sel 1 0;
#X obj 97 135 timer;
#X floatatom 82 187 5 0 0 0 - - -, f 5;
#X obj 97 156 * 5;
#X obj 399 177 r \$0-playback;
#X obj 399 198 == 0;
#X obj 209 281 spigot;
#X obj 354 257 spigot 1;
#X obj 183 516 pack f f;
#X obj 399 370 s \$0-volume;
#X msg 393 346 0;
#X obj 354 278 t b f b;
#N canvas 45 70 450 300 getGain 0;
#X obj 74 49 inlet;
#X obj 74 222 outlet;
#X obj 74 159 tabread /sampleVolume;
#X obj 74 96 \$1;
#X obj 74 117 - 1;
#X connect 0 0 3 0;
#X connect 2 0 1 0;
#X connect 3 0 4 0;
#X connect 4 0 2 0;
#X restore 354 399 pd getGain;
#X obj 402 324 s toGUI;
#X msg 402 303 list /sampleLoop 1;
#X obj 115 614 print ramp;
#N canvas 79 111 450 300 fader 0;
#X obj 83 52 inlet;
#X obj 83 73 line;
#X floatatom 101 103 5 0 0 0 - - -, f 5;
#X obj 83 194 setSampleGUI \$1;
#X obj 96 144 saveStatus /sampleVolume \$1;
#X msg 83 170 list /sampleVolume set \$1;
#X connect 0 0 1 0;
#X connect 1 0 2 0;
#X connect 1 0 4 0;
#X connect 1 0 5 0;
#X connect 5 0 3 0;
#X restore 324 613 pd fader;
#X obj 40 390 del;
#X text 134 136 fade time = touch time * 5;
#X text 304 258 fade IN;
#X text 153 282 fade OUT;
#X msg 183 339 0;
#X obj 209 302 t b f b;
#N canvas 45 70 450 300 getGain 0;
#X obj 74 49 inlet;
#X obj 74 222 outlet;
#X obj 74 159 tabread /sampleVolume;
#X obj 74 96 \$1;
#X obj 74 117 - 1;
#X connect 0 0 3 0;
#X connect 2 0 1 0;
#X connect 3 0 4 0;
#X connect 4 0 2 0;
#X restore 248 329 pd getGain;
#X obj 40 515 f;
#X obj 40 433 t b b;
#N canvas 0 50 450 300 stop 0;
#X obj 76 29 inlet;
#X obj 122 121 s \$0-playback;
#X msg 76 82 0;
#X obj 76 203 setSampleGUI \$1;
#X obj 86 156 saveStatus /sampleLoop \$1;
#X text 105 82 stop playback when finished;
#X msg 76 180 list /sampleLoop set \$1;
#X connect 0 0 2 0;
#X connect 2 0 1 0;
#X connect 2 0 6 0;
#X connect 2 0 4 0;
#X connect 6 0 3 0;
#X restore 67 457 pd stop;
#X floatatom 268 353 5 0 0 0 - - -, f 5;
#X obj 51 413 bng 15 250 50 0 empty empty empty 17 7 0 10 -262144 -1
-1;
#X floatatom 40 551 5 0 0 0 - - -, f 5;
#X obj 324 540 * 1;
#X obj 40 359 t b f;
#X obj 40 484 del 100;
#X msg 324 561 set \$1;
#X connect 1 0 2 0;
#X connect 2 0 3 0;
#X connect 2 1 3 1;
#X connect 3 0 5 0;
#X connect 5 0 4 0;
#X connect 5 0 9 0;
#X connect 5 0 8 0;
#X connect 6 0 7 0;
#X connect 6 0 8 1;
#X connect 7 0 9 1;
#X connect 8 0 24 0;
#X connect 8 0 33 0;
#X connect 9 0 13 0;
#X connect 10 0 0 0;
#X connect 10 0 18 0;
#X connect 12 0 11 0;
#X connect 12 0 32 0;
#X connect 13 0 14 0;
#X connect 13 1 10 1;
#X connect 13 2 12 0;
#X connect 13 2 16 0;
#X connect 14 0 10 0;
#X connect 16 0 15 0;
#X connect 19 0 27 0;
#X connect 19 0 30 0;
#X connect 23 0 10 0;
#X connect 24 0 23 0;
#X connect 24 1 10 1;
#X connect 24 2 25 0;
#X connect 25 0 26 1;
#X connect 25 0 29 0;
#X connect 25 0 32 0;
#X connect 26 0 31 0;
#X connect 26 0 18 0;
#X connect 27 0 34 0;
#X connect 27 1 28 0;
#X connect 32 0 0 0;
#X connect 32 0 35 0;
#X connect 33 0 19 0;
#X connect 33 1 19 1;
#X connect 34 0 26 0;
#X connect 35 0 18 0;
#X restore 139 105 pd fade in/out;
#X obj 139 126 unpack;
#X obj 139 169 pack, f 6;
#X obj 139 148 expr (pow(101 \, $f1)-1)/100;
#X connect 0 0 11 0;
#X connect 1 0 2 0;
#X connect 2 0 12 1;
#X connect 3 0 4 0;
#X connect 3 0 12 0;
#X connect 5 0 3 1;
#X connect 6 0 10 0;
#X connect 7 0 8 0;
#X connect 7 0 12 0;
#X connect 9 0 7 0;
#X connect 10 0 7 1;
#X connect 10 0 3 0;
#X connect 11 0 6 0;
#X connect 13 0 14 0;
#X connect 14 0 16 0;
#X connect 14 1 15 1;
#X connect 15 0 10 0;
#X connect 16 0 15 0;
#X restore 206 369 pd output;
#N canvas 107 124 450 300 reverb 0;
#X obj 186 74 inlet~;
#X obj 186 195 outlet~;
#X obj 274 35 r \$0-sendReverb;
#X obj 259 163 *~;
#X obj 274 115 pack \$1 10;
#X obj 58 102 inlet~;
#X obj 58 223 outlet~;
#X obj 131 191 *~;
#X obj 131 223 throw~ toReverbLeft;
#X obj 259 194 throw~ toReverbRight;
#X obj 274 136 line~;
#X floatatom 283 83 5 0 0 0 - - -, f 5;
#X obj 274 58 / 10;
#X connect 0 0 1 0;
#X connect 0 0 3 0;
#X connect 2 0 12 0;
#X connect 3 0 9 0;
#X connect 4 0 10 0;
#X connect 5 0 6 0;
#X connect 5 0 7 0;
#X connect 7 0 8 0;
#X connect 10 0 3 1;
#X connect 10 0 7 1;
#X connect 12 0 11 0;
#X connect 12 0 4 0;
#X restore 206 412 pd reverb;
#N canvas 0 50 450 300 pan 0;
#X obj 109 65 r \$0-samplePan;
#X obj 64 32 inlet~;
#X obj 64 233 outlet~;
#X floatatom 115 87 5 0 0 0 - - -, f 5;
#X obj 109 209 outlet~, f 9;
#X obj 64 177 pan.mmb~;
#X msg 109 131 \$1 10;
#X obj 109 152 line~;
#X obj 109 106 / 8;
#X obj 252 71 loadbang;
#X msg 252 92 0.5, f 9;
#X connect 0 0 3 0;
#X connect 0 0 8 0;
#X connect 1 0 5 0;
#X connect 5 0 2 0;
#X connect 5 1 4 0;
#X connect 6 0 7 0;
#X connect 7 0 5 1;
#X connect 8 0 6 0;
#X connect 9 0 10 0;
#X connect 10 0 6 0;
#X restore 206 335 pd pan;
#X obj 206 468 throw~ toMasterLeft;
#X obj 258 448 throw~ toMasterRight;
#N canvas 76 31 750 612 playback 0;
#X obj 289 368 *~;
#X msg 425 242 0;
#X floatatom 214 61 5 0 0 0 - - -, f 5;
#X floatatom 296 254 8 0 0 0 - - -, f 8;
#X obj 288 124 t b f;
#X obj 288 390 tabread4~ /sample-\$1;
#X obj 288 232 *;
#X obj 296 208 t b f;
#X obj 296 187 r \$0-rampFreq;
#X obj 499 129 r \$0-playback;
#X obj 304 345 r \$0-sampleSize;
#X obj 250 13 r \$0-reverse;
#X obj 145 369 samphold~;
#X msg 70 396 1;
#X obj 76 300 f 1;
#X obj 47 200 loadbang;
#X obj 152 501 bng 15 250 50 0 empty empty empty 17 7 0 10 -262144
-1 -1;
#X obj 76 258 + 1;
#X obj 425 218 sel 1;
#X obj 145 426 *~;
#X obj 160 399 r \$0-playback;
#X text 114 272 detect ramp beginning;
#X floatatom 81 495 5 0 0 0 - - -, f 5;
#X obj 229 341 *~ 1;
#X obj 144 480 change;
#N canvas 154 3 450 634 displayTime 0;
#X obj 139 57 t b f;
#X obj 139 85 f \$1;
#X obj 151 114 ==;
#X obj 151 137 t b f;
#X obj 133 169 +;
#X obj 133 190 == 2;
#X obj 133 5 inlet playback;
#X obj 139 30 r sampleSelect;
#X obj 133 211 tgl 15 0 empty empty empty 17 7 0 10 -262144 -1 -1 0
1;
#X obj 117 283 inlet~ ramp;
#X obj 105 310 snapshot~ 100;
#X obj 105 234 metro 100;
#X obj 246 277 r \$0-sampleLength;
#X obj 133 605 s toGUI;
#X obj 133 391 *;
#N canvas 421 136 450 300 round 0;
#X obj 80 58 inlet;
#X obj 80 152 outlet;
#X obj 80 131 / 100;
#X obj 80 79 / 10;
#X obj 80 100 int;
#X connect 0 0 3 0;
#X connect 2 0 1 0;
#X connect 3 0 4 0;
#X connect 4 0 2 0;
#X restore 133 440 pd round;
#X floatatom 64 344 5 0 0 0 - - -, f 5;
#X floatatom 141 462 5 0 0 0 - - -, f 5;
#X msg 105 519 list /playPos set \$1;
#X obj 142 413 s \$0-curPos;
#X msg 133 489 list /timerPos \$1;
#X obj 166 559 r timerSwitch;
#X obj 133 582 spigot;
#X obj 246 375 saveStatus /sampleLength \$1;
#X obj 246 306 / 1000;
#X obj 255 352 s toGUI;
#X msg 255 331 list /timerTot \$1;
#X connect 0 0 1 0;
#X connect 0 1 2 1;
#X connect 1 0 2 0;
#X connect 2 0 3 0;
#X connect 3 0 4 0;
#X connect 3 1 4 1;
#X connect 4 0 5 0;
#X connect 5 0 8 0;
#X connect 5 0 11 0;
#X connect 6 0 4 0;
#X connect 7 0 0 0;
#X connect 9 0 10 0;
#X connect 10 0 18 0;
#X connect 10 0 14 0;
#X connect 10 0 14 0;
#X connect 10 0 16 0;
#X connect 11 0 10 0;
#X connect 12 0 14 1;
#X connect 12 0 14 1;
#X connect 12 0 24 0;
#X connect 14 0 19 0;
#X connect 14 0 15 0;
#X connect 15 0 20 0;
#X connect 15 0 17 0;
#X connect 18 0 22 0;
#X connect 20 0 22 0;
#X connect 21 0 22 1;
#X connect 22 0 13 0;
#X connect 24 0 23 0;
#X connect 24 0 26 0;
#X connect 26 0 25 0;
#X restore 418 335 pd displayTime;
#N canvas 139 70 484 486 speed 0;
#X obj 60 68 r \$0-speed;
#X obj 60 387 outlet;
#X text 89 46 normal speed;
#X obj 77 93 r \$0-speedChoice;
#X obj 334 114 r \$0-randomSpeed;
#X floatatom 349 158 5 0 0 0 - - -, f 5;
#X obj 321 275 bng 15 250 50 0 empty empty empty 17 7 0 10 -262144
-1 -1;
#X text 331 60 random speed;
#X obj 334 136 expr (13-$f1)*100;
#X obj 310 298 random 13;
#X obj 310 319 s \$0-speedChoice;
#X obj 310 90 r \$0-rndSpeedTgl;
#X obj 310 252 metro 700;
#X obj 286 224 f;
#X obj 334 187 t b f;
#X obj 60 173 f;
#X obj 189 212 loadbang;
#X msg 189 233 6;
#X obj 60 280 expr $f1/8+0.25;
#X obj 60 234 moses 6;
#X obj 189 280 expr ($f1-4)*0.5;
#X connect 0 0 15 0;
#X connect 3 0 15 0;
#X connect 4 0 8 0;
#X connect 8 0 5 0;
#X connect 8 0 14 0;
#X connect 9 0 10 0;
#X connect 11 0 12 0;
#X connect 11 0 13 1;
#X connect 12 0 6 0;
#X connect 12 0 9 0;
#X connect 13 0 12 0;
#X connect 14 0 13 0;
#X connect 14 1 12 1;
#X connect 15 0 19 0;
#X connect 16 0 17 0;
#X connect 17 0 20 0;
#X connect 18 0 1 0;
#X connect 19 0 18 0;
#X connect 19 1 20 0;
#X connect 20 0 1 0;
#X restore 190 121 pd speed;
#X obj 288 571 outlet~;
#X obj 304 437 r \$0-playback;
#X obj 288 498 *~;
#X obj 250 36 expr $f1*-2+1;
#X obj 144 528 s \$0-pulse;
#X obj 76 234 r \$0-pulse;
#X obj 288 161 * 1, f 5;
#X obj 250 66 f;
#X floatatom 214 95 5 0 0 0 - - -, f 5;
#X obj 144 459 snapshot~;
#X obj 70 422 metro 40;
#X floatatom 106 385 5 0 0 0 - - -, f 5;
#N canvas 177 117 450 300 readRamp~ 0;
#X obj 93 22 inlet freq;
#X obj 204 22 inlet phase;
#X obj 152 241 outlet~;
#X obj 106 101 phasor~;
#N canvas 86 115 569 400 pingpong~ 0;
#X obj 140 30 inlet;
#X obj 309 45 r \$0-samplePingpong;
#X obj 309 66 switch~;
#X obj 140 124 phasor~ 1;
#X floatatom 103 58 5 0 0 0 - - -, f 5;
#X obj 140 145 *~ 2;
#X obj 140 166 -~ 1;
#X obj 141 191 clip~ 0 1;
#X obj 220 124 phasor~ 1;
#X obj 220 145 *~ 2;
#X obj 220 166 -~ 1;
#X obj 220 191 clip~ 0 1;
#X obj 220 95 * -1;
#X obj 240 36 inlet;
#X obj 177 231 outlet~;
#X obj 140 51 / 2;
#X connect 0 0 4 0;
#X connect 0 0 15 0;
#X connect 1 0 2 0;
#X connect 3 0 5 0;
#X connect 5 0 6 0;
#X connect 6 0 7 0;
#X connect 7 0 14 0;
#X connect 8 0 9 0;
#X connect 9 0 10 0;
#X connect 10 0 11 0;
#X connect 11 0 14 0;
#X connect 12 0 8 0;
#X connect 13 0 8 1;
#X connect 13 0 3 1;
#X connect 15 0 12 0;
#X connect 15 0 3 0;
#X restore 161 101 pd pingpong~;
#X obj 257 155 r \$0-samplePingpong;
#X obj 209 136 loadbang;
#X msg 209 157 0;
#X obj 149 194 switch.oct~;
#X connect 0 0 3 0;
#X connect 0 0 4 0;
#X connect 1 0 3 1;
#X connect 1 0 4 1;
#X connect 3 0 8 0;
#X connect 4 0 8 1;
#X connect 5 0 8 2;
#X connect 6 0 7 0;
#X connect 7 0 8 2;
#X connect 8 0 2 0;
#X restore 288 285 pd readRamp~;
#X obj 367 489 switch~;
#X obj 304 463 gently.oct~;
#X connect 0 0 5 0;
#X connect 1 0 39 1;
#X connect 4 0 33 0;
#X connect 4 1 33 1;
#X connect 5 0 29 0;
#X connect 6 0 3 0;
#X connect 6 0 39 0;
#X connect 7 0 6 0;
#X connect 7 1 6 1;
#X connect 8 0 7 0;
#X connect 9 0 18 0;
#X connect 9 0 25 1;
#X connect 10 0 0 1;
#X connect 11 0 30 0;
#X connect 12 0 19 0;
#X connect 13 0 37 0;
#X connect 14 0 12 0;
#X connect 15 0 14 0;
#X connect 15 0 13 0;
#X connect 17 0 14 0;
#X connect 18 0 1 0;
#X connect 19 0 36 0;
#X connect 20 0 19 1;
#X connect 23 0 12 1;
#X connect 24 0 16 0;
#X connect 24 0 31 0;
#X connect 26 0 33 0;
#X connect 28 0 41 0;
#X connect 29 0 27 0;
#X connect 30 0 2 0;
#X connect 30 0 34 0;
#X connect 32 0 17 0;
#X connect 33 0 6 0;
#X connect 34 0 4 0;
#X connect 34 0 23 1;
#X connect 34 0 35 0;
#X connect 36 0 22 0;
#X connect 36 0 24 0;
#X connect 37 0 36 0;
#X connect 38 0 37 1;
#X connect 39 0 23 0;
#X connect 39 0 0 0;
#X connect 39 0 25 0;
#X connect 41 0 29 1;
#X connect 41 1 40 0;
#X restore 206 46 pd playback;
#N canvas 110 20 596 418 speedSlider 0;
#X obj 317 345 s \$0-speed;
#X obj 105 31 r \$0-speedSlider;
#X obj 362 86 r \$0-rndSpeedTgl;
#X obj 317 130 spigot 1;
#X obj 362 108 == 0;
#X obj 332 298 setSampleGUI \$1;
#X obj 332 202 f;
#X obj 332 177 sel 0;
#X obj 343 253 s \$0-speed;
#X obj 30 134 spigot;
#X obj 30 304 s \$0-randomSpeed;
#X text 375 176 set last speed value and slider;
#X obj 46 189 sel 1;
#X obj 46 265 setSampleGUI \$1;
#X obj 46 210 f;
#X obj 332 156 r \$0-rndSpeedTgl;
#X obj 63 111 r \$0-rndSpeedTgl;
#X obj 46 166 r \$0-rndSpeedTgl;
#X text 86 189 set last time value and slider;
#X msg 46 244 list /sampleSpeed \$1;
#X msg 332 277 list /sampleSpeed \$1;
#X connect 1 0 9 0;
#X connect 1 0 3 0;
#X connect 2 0 4 0;
#X connect 3 0 0 0;
#X connect 3 0 6 1;
#X connect 4 0 3 1;
#X connect 6 0 8 0;
#X connect 6 0 20 0;
#X connect 7 0 6 0;
#X connect 9 0 10 0;
#X connect 9 0 14 1;
#X connect 12 0 14 0;
#X connect 14 0 19 0;
#X connect 15 0 7 0;
#X connect 16 0 9 1;
#X connect 17 0 12 0;
#X connect 19 0 13 0;
#X connect 20 0 5 0;
#X restore 47 298 pd speedSlider;
#N canvas 0 50 450 300 tableSize 0;
#X obj 49 42 loadbang;
#X obj 115 159 samplerate~;
#X obj 49 63 delay 100;
#X msg 49 228 \; /sample-\$1 resize \$2;
#X text 48 24 set table size once;
#X obj 100 110 v sampleSeconds;
#X obj 100 182 *;
#X obj 49 84 t b b, f 9;
#X obj 115 137 loadbang;
#X obj 49 206 pack \$1 f;
#X obj 49 260 print;
#X connect 0 0 2 0;
#X connect 1 0 6 1;
#X connect 2 0 7 0;
#X connect 3 0 10 0;
#X connect 5 0 6 0;
#X connect 6 0 9 1;
#X connect 7 0 9 0;
#X connect 7 1 5 0;
#X connect 8 0 1 0;
#X connect 9 0 3 0;
#X restore 44 115 pd tableSize;
#X obj 206 261 +~;
#N canvas 164 27 529 597 pitch 0;
#X obj 327 103 inlet~;
#X obj 27 558 outlet~;
#X obj 89 410 *~;
#X obj 212 347 line~;
#X obj 212 321 pack 0 200;
#X obj 26 195 exp;
#X floatatom 26 221 6 0 0 0 - - -, f 6;
#X obj 26 311 /;
#X obj 153 241 * 0.001;
#X obj 321 417 line~;
#X obj 321 392 pack 0 200;
#X floatatom 321 341 0 0 0 0 - - -;
#X obj 321 315 r delay;
#X obj 89 436 +~;
#X obj 26 462 cos~;
#X obj 26 489 *~;
#X obj 26 518 +~;
#X obj 113 369 wrap~;
#X obj 258 412 *~;
#X obj 258 445 +~;
#X obj 195 472 cos~;
#X obj 195 499 *~;
#X obj 153 268 t b f;
#X floatatom 26 337 6 0 0 0 - - -, f 6;
#X obj 113 342 +~ 0.5;
#X obj 26 410 -~ 0.5;
#X obj 26 436 *~ 0.5;
#X obj 195 411 -~ 0.5;
#X obj 195 444 *~ 0.5;
#X obj 26 248 - 1;
#X obj 26 169 * 0.05776;
#X obj 26 274 * -1;
#X text 76 101 <-- transposition;
#X text 112 118 (halftones);
#X text 89 215 speed;
#X text 88 229 change;
#X text 288 163 <--window (msec);
#X text 61 304 tape head;
#X obj 26 368 phasor~;
#X obj 321 368 max 1.5;
#X text 324 274 delay;
#X text 321 292 (msec);
#X obj 244 191 max 1;
#X text 62 317 rotation freq;
#X obj 327 133 delwrite~ \$0-pitch 5000;
#X obj 258 474 vd~ \$0-pitch;
#X obj 89 462 vd~ \$0-pitch;
#X obj 26 6 r \$0-pitchShifter;
#X floatatom 36 102 5 0 0 0 - - -, f 5;
#X obj 244 118 loadbang;
#X msg 244 139 100;
#X obj 26 76 expr $f1*24-12;
#X connect 0 0 44 0;
#X connect 2 0 13 0;
#X connect 3 0 2 1;
#X connect 3 0 18 1;
#X connect 4 0 3 0;
#X connect 5 0 6 0;
#X connect 6 0 29 0;
#X connect 7 0 23 0;
#X connect 8 0 22 0;
#X connect 9 0 13 1;
#X connect 9 0 19 1;
#X connect 10 0 9 0;
#X connect 11 0 39 0;
#X connect 12 0 11 0;
#X connect 13 0 46 0;
#X connect 14 0 15 0;
#X connect 15 0 16 0;
#X connect 16 0 1 0;
#X connect 17 0 18 0;
#X connect 17 0 27 0;
#X connect 18 0 19 0;
#X connect 19 0 45 0;
#X connect 20 0 21 0;
#X connect 21 0 16 1;
#X connect 22 0 7 0;
#X connect 22 1 7 1;
#X connect 23 0 38 0;
#X connect 24 0 17 0;
#X connect 25 0 26 0;
#X connect 26 0 14 0;
#X connect 27 0 28 0;
#X connect 28 0 20 0;
#X connect 29 0 31 0;
#X connect 30 0 5 0;
#X connect 31 0 7 0;
#X connect 38 0 2 0;
#X connect 38 0 25 0;
#X connect 38 0 24 0;
#X connect 39 0 10 0;
#X connect 42 0 8 0;
#X connect 42 0 4 0;
#X connect 45 0 21 1;
#X connect 46 0 15 1;
#X connect 47 0 51 0;
#X connect 49 0 50 0;
#X connect 50 0 42 0;
#X connect 51 0 30 0;
#X connect 51 0 48 0;
#X restore 258 101 pd pitch;
#X obj 225 296 s~ output-\$1;
#N canvas 80 109 350 300 filter 0;
#N canvas 7 29 753 568 filter 0;
#X obj 31 496 outlet~;
#X obj 30 22 inlet~;
#X obj 49 74 r \$0-filterFreq;
#X floatatom 59 121 8 0 0 0 - - -, f 8;
#X obj 69 259 r \$0-filterBW;
#X obj 407 424 random 100;
#X obj 407 445 / 100;
#X obj 464 230 expr (1-$f1)*900+100;
#X obj 30 332 vcf~ 10;
#X obj 407 506 s \$0-filterFreq;
#X obj 49 206 pack f 10;
#X text 423 44 random freq;
#X text 104 44 static freq;
#X obj 49 227 vline~;
#X obj 45 399 r \$0-filterActive;
#X obj 52 422 tgl 15 0 empty empty empty 17 7 0 10 -262144 -1 -1 0
1;
#X obj 30 468 *~;
#X obj 45 443 gently.oct~;
#X obj 108 468 switch~;
#X obj 407 86 r \$0-filterRandom;
#N canvas 171 174 333 300 updateGUI 0;
#X obj 61 42 inlet;
#X obj 94 134 r \$0-filterRandom;
#X obj 61 156 spigot;
#X obj 61 177 line;
#X obj 61 103 pack f f;
#X msg 61 211 list /filterFreq set \$1;
#X obj 106 75 r \$0-freqRampTime;
#X obj 61 232 setSampleGUI \$1;
#X connect 0 0 4 0;
#X connect 1 0 2 1;
#X connect 2 0 3 0;
#X connect 3 0 5 0;
#X connect 4 0 2 0;
#X connect 5 0 7 0;
#X connect 6 0 4 1;
#X restore 416 470 pd updateGUI;
#N canvas 782 127 493 327 switchLogic 0;
#X obj 81 30 inlet;
#X msg 81 108 10;
#X obj 81 73 sel 0;
#X obj 81 134 s \$0-freqRampInterval;
#X connect 0 0 2 0;
#X connect 1 0 3 0;
#X connect 2 0 1 0;
#X restore 270 148 pd switchLogic;
#X obj 49 95 expr pow(100 \, $f1)*50;
#X obj 30 367 *~ 10;
#X obj 427 112 r \$0-filterActive;
#X obj 407 160 +;
#X obj 407 181 == 2;
#X obj 427 135 t b f;
#X floatatom 107 184 5 0 0 0 - - -, f 5;
#X obj 522 322 t b f;
#X obj 490 277 s \$0-freqRampInterval;
#X obj 480 372 s \$0-freqRampTime;
#X obj 100 142 r \$0-freqRampTime;
#X obj 464 206 r \$0-filterRate;
#X obj 522 301 r \$0-filterGlide;
#X floatatom 494 251 5 0 0 0 - - -, f 5;
#X obj 100 163 max 10;
#X obj 407 403 metro 1000;
#X floatatom 75 302 5 0 0 0 - - -, f 5;
#X obj 69 279 expr pow(100 \, $f1);
#X obj 480 351 expr $f1*$f2;
#X connect 1 0 8 0;
#X connect 2 0 22 0;
#X connect 4 0 39 0;
#X connect 5 0 6 0;
#X connect 6 0 9 0;
#X connect 6 0 20 0;
#X connect 7 0 30 0;
#X connect 7 0 35 0;
#X connect 7 0 37 1;
#X connect 7 0 40 0;
#X connect 8 0 23 0;
#X connect 10 0 13 0;
#X connect 13 0 8 1;
#X connect 14 0 15 0;
#X connect 14 0 17 0;
#X connect 16 0 0 0;
#X connect 17 0 16 1;
#X connect 17 1 18 0;
#X connect 19 0 21 0;
#X connect 19 0 25 0;
#X connect 22 0 3 0;
#X connect 22 0 10 0;
#X connect 23 0 16 0;
#X connect 24 0 27 0;
#X connect 25 0 26 0;
#X connect 26 0 37 0;
#X connect 27 0 25 0;
#X connect 27 1 25 1;
#X connect 29 0 40 0;
#X connect 29 1 40 1;
#X connect 32 0 36 0;
#X connect 33 0 7 0;
#X connect 34 0 29 0;
#X connect 36 0 10 1;
#X connect 36 0 28 0;
#X connect 37 0 5 0;
#X connect 39 0 38 0;
#X connect 39 0 8 2;
#X connect 40 0 31 0;
#X restore 65 121 pd filter;
#X obj 47 201 outlet~;
#X obj 47 29 inlet~;
#X obj 134 29 r \$0-filterActive;
#X text 146 160 balance loudness;
#X obj 47 75 spigot.oct~ 100;
#X obj 65 161 balance.mmb~;
#X connect 0 0 6 0;
#X connect 2 0 5 0;
#X connect 3 0 5 1;
#X connect 5 0 1 0;
#X connect 5 1 0 0;
#X connect 5 1 6 1;
#X connect 6 0 1 0;
#X restore 258 138 pd filter insert;
#N canvas 80 109 449 300 delay 0;
#X obj 47 180 outlet~;
#X obj 47 29 inlet~;
#N canvas 48 28 507 593 delay 0;
#X obj 42 35 inlet~;
#X obj 42 529 outlet~;
#X obj 256 10 r \$0-delayTime;
#X obj 104 124 r \$0-delayFeedback;
#X floatatom 266 87 8 0 0 0 - - -, f 8;
#X obj 256 176 delread4~ \$0-delay;
#X obj 88 301 delwrite~ \$0-delay 2000;
#X obj 256 125 pack \$1 100;
#X obj 256 146 vline~;
#X obj 104 244 *~;
#X obj 256 357 *~;
#X floatatom 114 171 5 0 0 0 - - -, f 5;
#X obj 271 389 r \$0-delayOn;
#X obj 284 414 tgl 15 0 empty empty empty 17 7 0 10 -262144 -1 -1 0
1;
#X obj 256 61 expr pow(44.5 \, $f1+1);
#X obj 104 145 expr $f1*0.95;
#N canvas 149 88 404 450 randomTime 0;
#X floatatom 53 197 5 0 0 0 - - -, f 5;
#X obj 46 257 bng 15 250 50 0 empty empty empty 17 7 0 10 -262144 -1
-1;
#X floatatom 47 396 5 0 0 0 - - -, f 5;
#X obj 35 279 random 100;
#X obj 35 370 / 100;
#X obj 35 320 pack f f;
#X obj 35 341 line;
#X obj 35 421 outlet;
#X obj 92 174 expr (1-$f1)*900+100;
#X floatatom 45 300 5 0 0 0 - - -, f 5;
#X obj 35 6 r \$0-delayRandom;
#X msg 125 401 list /delayTime set \$1;
#X obj 125 422 setSampleGUI \$1;
#X obj 236 169 r \$0-delayGlide;
#X obj 236 244 *;
#X obj 236 265 max 10;
#X floatatom 236 286 5 0 0 0 - - -, f 5;
#X obj 236 211 t b f;
#X obj 92 148 r \$0-delayRate;
#X obj 50 26 r \$0-delayOn;
#X obj 35 77 +;
#X obj 35 98 == 2;
#X obj 41 120 tgl 15 0 empty empty empty 17 7 0 10 -262144 -1 -1 0
1;
#X obj 50 47 t b f;
#X obj 35 234 metro 1000;
#X connect 3 0 5 0;
#X connect 3 0 9 0;
#X connect 4 0 2 0;
#X connect 4 0 7 0;
#X connect 4 0 11 0;
#X connect 5 0 6 0;
#X connect 6 0 4 0;
#X connect 8 0 0 0;
#X connect 8 0 14 0;
#X connect 8 0 24 1;
#X connect 10 0 20 0;
#X connect 11 0 12 0;
#X connect 13 0 17 0;
#X connect 14 0 15 0;
#X connect 15 0 16 0;
#X connect 15 0 5 1;
#X connect 17 0 14 0;
#X connect 17 1 14 1;
#X connect 18 0 8 0;
#X connect 19 0 23 0;
#X connect 20 0 21 0;
#X connect 21 0 22 0;
#X connect 21 0 24 0;
#X connect 23 0 20 0;
#X connect 23 1 20 1;
#X connect 24 0 1 0;
#X connect 24 0 3 0;
#X restore 266 35 pd randomTime;
#X obj 271 310 pack \$1 10;
#X obj 104 192 pack \$1 10;
#X obj 104 213 line~;
#X obj 271 331 line~;
#X obj 256 458 *~;
#X obj 271 433 gently.oct~;
#X obj 334 459 switch~;
#X floatatom 343 93 5 0 0 0 - - -, f 5;
#X obj 105 362 r \$0-delayRandom;
#N canvas 67 74 448 434 delay 0;
#X obj 246 29 r \$0-delayLevel;
#X obj 246 99 spigot 1;
#X obj 291 56 r \$0-delayRandom;
#X obj 291 77 == 0;
#X obj 232 231 sel 0 1;
#X msg 232 357 list /delayLabel level;
#X msg 251 333 list /delayLabel rate;
#X obj 167 397 s toGUI;
#X obj 232 206 r \$0-delayRandom;
#X obj 66 23 r \$0-delayLevel;
#X obj 99 59 r \$0-delayRandom;
#X floatatom 75 109 5 0 0 0 - - -, f 5;
#X floatatom 254 123 5 0 0 0 - - -, f 5;
#X msg 72 303 list /delayLevel set \$1;
#X msg 261 277 list /delayLevel set \$1;
#X obj 66 84 spigot;
#X obj 62 372 outlet;
#X msg 80 341 1;
#X obj 46 170 s \$0-delayRate;
#X obj 66 141 v \$0-delRate;
#X obj 62 277 v \$0-delLevel;
#X obj 261 256 v \$0-delRate;
#X obj 246 151 v \$0-delLevel;
#X connect 0 0 1 0;
#X connect 1 0 12 0;
#X connect 1 0 16 0;
#X connect 1 0 22 0;
#X connect 2 0 3 0;
#X connect 3 0 1 1;
#X connect 4 0 5 0;
#X connect 4 0 20 0;
#X connect 4 1 6 0;
#X connect 4 1 17 0;
#X connect 4 1 21 0;
#X connect 5 0 7 0;
#X connect 6 0 7 0;
#X connect 8 0 4 0;
#X connect 9 0 15 0;
#X connect 10 0 15 1;
#X connect 13 0 7 0;
#X connect 14 0 7 0;
#X connect 15 0 11 0;
#X connect 15 0 18 0;
#X connect 15 0 19 0;
#X connect 17 0 16 0;
#X connect 20 0 13 0;
#X connect 20 0 16 0;
#X connect 21 0 14 0;
#X restore 271 220 pd delay level/rate;
#X floatatom 279 244 5 0 0 0 - - -, f 5;
#X obj 342 253 loadbang;
#X msg 342 274 0.5;
#X obj 42 382 spigot.oct~;
#X connect 0 0 6 0;
#X connect 0 0 30 0;
#X connect 2 0 14 0;
#X connect 3 0 15 0;
#X connect 5 0 9 1;
#X connect 5 0 10 0;
#X connect 7 0 8 0;
#X connect 8 0 5 0;
#X connect 9 0 6 0;
#X connect 10 0 21 0;
#X connect 12 0 13 0;
#X connect 12 0 22 0;
#X connect 14 0 4 0;
#X connect 14 0 7 0;
#X connect 15 0 11 0;
#X connect 15 0 18 0;
#X connect 16 0 14 0;
#X connect 17 0 20 0;
#X connect 18 0 19 0;
#X connect 19 0 9 0;
#X connect 20 0 10 1;
#X connect 21 0 1 0;
#X connect 22 0 21 1;
#X connect 22 1 23 0;
#X connect 24 0 7 1;
#X connect 25 0 30 1;
#X connect 26 0 17 0;
#X connect 26 0 27 0;
#X connect 28 0 29 0;
#X connect 29 0 17 0;
#X connect 30 0 1 0;
#X restore 134 101 pd delay;
#X obj 134 32 r \$0-delayOn;
#X obj 47 72 spigot.oct~ 100;
#X connect 1 0 4 0;
#X connect 2 0 0 0;
#X connect 3 0 4 1;
#X connect 4 0 0 0;
#X connect 4 1 2 0;
#X restore 258 200 pd delay insert;
#N canvas 80 109 449 395 overDrive 0;
#X obj 47 330 outlet~;
#X obj 47 17 inlet~;
#X obj 104 41 r \$0-overDrive;
#X obj 47 216 drive.oct~;
#X floatatom 121 154 5 0 0 0 - - -, f 5;
#X obj 104 196 line;
#X obj 104 134 expr log($f1+1)/2;
#X obj 104 175 pack f 250;
#X text 128 269 balance loudness;
#X obj 47 270 balance.mmb~;
#X connect 1 0 3 0;
#X connect 1 0 9 1;
#X connect 2 0 6 0;
#X connect 3 0 9 0;
#X connect 5 0 3 1;
#X connect 6 0 4 0;
#X connect 6 0 7 0;
#X connect 7 0 5 0;
#X connect 9 0 0 0;
#X restore 258 168 pd overDrive insert;
#X connect 5 0 6 0;
#X connect 5 1 6 1;
#X connect 6 0 8 0;
#X connect 6 1 9 0;
#X connect 7 0 5 0;
#X connect 7 1 5 1;
#X connect 10 0 14 0;
#X connect 13 0 7 0;
#X connect 13 0 15 0;
#X connect 14 0 16 0;
#X connect 16 0 18 0;
#X connect 17 0 13 0;
#X connect 18 0 17 0;
