#N canvas -7 8 527 518 10;
#X obj 9 7 cnv 15 500 500 empty empty empty 20 12 0 14 -244723 -66577
0;
#X obj 62 297 r toGUI;
#X obj 149 450 print toGUI;
#X obj 182 396 tgl 15 0 empty empty empty 17 7 0 10 -262144 -1 -1 0
1;
#X obj 149 422 spigot;
#N canvas 142 89 499 208 params 0;
#X obj 153 50 list trim;
#N canvas 71 50 617 473 delay 0;
#X obj 28 55 inlet;
#X obj 101 266 loadbang;
#X msg 101 308 const 0.5;
#X obj 101 287 del 10;
#X obj 184 322 array define /delayOn 9;
#X obj 184 342 array define /delayTime 9;
#X obj 183 363 array define /delayFeedback 9;
#X obj 184 382 array define /delayLevel 9;
#X obj 184 402 array define /delayRandom 9;
#X obj 104 198 saveStatus /delayTime;
#X obj 28 222 saveStatus /delayOn;
#X obj 181 176 saveStatus /delayFeedback;
#X obj 257 153 saveStatus /delayLevel;
#X obj 334 133 saveStatus /delayRandom;
#X obj 28 85 route /delayOn /delayTime /delayFeedback /delayLevel /delayRandom
/delayGlide, f 77;
#X obj 409 113 saveStatus /delayGlide;
#X obj 184 422 array define /delayGlide 9;
#X connect 0 0 14 0;
#X connect 1 0 3 0;
#X connect 2 0 5 0;
#X connect 2 0 6 0;
#X connect 2 0 7 0;
#X connect 3 0 2 0;
#X connect 14 0 10 0;
#X connect 14 1 9 0;
#X connect 14 2 11 0;
#X connect 14 3 12 0;
#X connect 14 4 13 0;
#X connect 14 5 15 0;
#X restore 222 109 pd delay;
#N canvas 252 73 507 414 record 0;
#X msg 132 309 const 1;
#X obj 25 27 inlet;
#X obj 132 255 loadbang;
#X obj 132 276 del 10;
#X obj 229 305 array define /sampleRec 9;
#X obj 229 325 array define /sourceMic 9;
#X obj 229 365 array define /sourceAll 9;
#X obj 25 225 saveStatus /sampleRec;
#X obj 102 201 saveStatus /sourceMic;
#X obj 256 156 saveStatus /sourceAll;
#X obj 229 385 array define /sampleLength 9;
#X obj 25 78 route /sampleRec /sourceMic /sourceTracks /sourceAll;
#X obj 179 179 saveStatus /sourceTracks;
#X obj 229 345 array define /sourceTracks 9;
#X msg 132 329 const 0;
#X connect 0 0 5 0;
#X connect 0 0 14 0;
#X connect 1 0 11 0;
#X connect 2 0 3 0;
#X connect 3 0 0 0;
#X connect 11 0 7 0;
#X connect 11 1 8 0;
#X connect 11 3 9 0;
#X connect 14 0 13 0;
#X restore 153 109 pd record;
#N canvas 22 22 829 595 playback 0;
#X msg 81 411 const 0.5;
#X msg 81 450 const 6;
#X obj 81 356 loadbang;
#X obj 25 25 inlet;
#X obj 81 377 del 10;
#X msg 81 490 const 4;
#X obj 178 427 array define /sampleVolume 9;
#X obj 178 447 array define /sampleReverse 9;
#X obj 178 466 array define /sampleSpeed 9;
#X obj 178 486 array define /randomSpeed 9;
#X obj 178 506 array define /samplePan 9;
#X obj 178 388 array define /samplePingpong 9;
#X obj 178 408 array define /sampleLoop 9;
#X obj 25 321 saveStatus /sampleLoop;
#X obj 107 295 saveStatus /sampleVolume;
#X obj 190 270 saveStatus /sampleReverse;
#X obj 273 246 saveStatus /sampleSpeed;
#X obj 356 226 saveStatus /randomSpeed;
#X obj 439 206 saveStatus /samplePan;
#X obj 522 186 saveStatus /samplePingpong;
#X obj 25 123 route /sampleLoop /sampleVolume /sampleReverse /sampleSpeed
/randomSpeed /samplePan /samplePingpong, f 99;
#X connect 0 0 1 0;
#X connect 0 0 6 0;
#X connect 1 0 5 0;
#X connect 1 0 8 0;
#X connect 2 0 4 0;
#X connect 3 0 20 0;
#X connect 4 0 0 0;
#X connect 5 0 10 0;
#X connect 20 0 13 0;
#X connect 20 1 14 0;
#X connect 20 2 15 0;
#X connect 20 3 16 0;
#X connect 20 4 17 0;
#X connect 20 5 18 0;
#X connect 20 6 19 0;
#X restore 72 109 pd playback;
#N canvas 512 105 584 431 filter 0;
#X obj 28 25 inlet;
#X msg 98 282 const 0.5;
#X obj 98 232 loadbang;
#X obj 98 253 del 10;
#X obj 177 298 array define /filterActive 9;
#X obj 177 318 array define /filterFreq 9;
#X obj 177 358 array define /filterBW 9;
#X obj 28 192 saveStatus /filterActive;
#X obj 107 168 saveStatus /filterFreq;
#X obj 346 103 saveStatus /filterRandom;
#X obj 176 339 array define /filterRate 9;
#X obj 177 378 array define /filterRandom 9;
#X obj 28 46 route /filterActive /filterFreq /filterRate /filterBW
/filterRandom /filterGlide, f 80;
#X obj 425 83 saveStatus /filterGlide;
#X obj 177 398 array define /filterGlide 9;
#X obj 187 145 saveStatus /filterRate;
#X obj 266 125 saveStatus /filterBW;
#X connect 0 0 12 0;
#X connect 1 0 5 0;
#X connect 1 0 6 0;
#X connect 1 0 10 0;
#X connect 2 0 3 0;
#X connect 3 0 1 0;
#X connect 12 0 7 0;
#X connect 12 1 8 0;
#X connect 12 2 15 0;
#X connect 12 3 16 0;
#X connect 12 4 9 0;
#X connect 12 5 13 0;
#X restore 282 109 pd filter;
#N canvas 512 105 521 431 fx 0;
#X obj 28 25 inlet;
#X obj 98 232 loadbang;
#X obj 98 253 del 10;
#X obj 177 278 array define /sendReverb 9;
#X obj 28 172 saveStatus /sendReverb;
#X obj 177 298 array define /pitchShifter 9;
#X obj 111 152 saveStatus /pitchShifter;
#X msg 98 282 const 0.5;
#X obj 28 46 route /sendReverb /pitchShifter /overDrive;
#X obj 194 132 saveStatus /overDrive;
#X obj 177 318 array define /overDrive 9;
#X connect 0 0 8 0;
#X connect 1 0 2 0;
#X connect 2 0 7 0;
#X connect 7 0 5 0;
#X connect 8 0 4 0;
#X connect 8 1 6 0;
#X connect 8 2 9 0;
#X restore 352 109 pd fx;
#X obj 153 29 receive fromGUI;
#X connect 0 0 1 0;
#X connect 0 0 2 0;
#X connect 0 0 3 0;
#X connect 0 0 4 0;
#X connect 0 0 5 0;
#X connect 6 0 0 0;
#X restore 32 64 pd params;
#X text 208 28 TODO;
#X obj 62 319 list trim;
#N canvas 0 50 768 345 init 0;
#X obj 164 100 v sampleSeconds;
#X obj 43 166 v gridSizeX;
#X obj 118 166 v gridSizeY;
#X obj 43 82 t b b;
#X obj 164 15 loadbang;
#X obj 338 89 del 100;
#X obj 338 263 s toGUI;
#X msg 365 213 list /gridSelect 0 0 1;
#X msg 338 233 list /gridSelect 0 0 0;
#X obj 338 180 t b b;
#X msg 43 143 3;
#X msg 118 146 3;
#X msg 164 76 10;
#X obj 360 143 s toGUI;
#X msg 360 122 list /recLength 9;
#X connect 3 0 10 0;
#X connect 3 1 11 0;
#X connect 4 0 3 0;
#X connect 4 0 12 0;
#X connect 4 0 5 0;
#X connect 5 0 9 0;
#X connect 5 0 14 0;
#X connect 7 0 6 0;
#X connect 8 0 6 0;
#X connect 9 0 8 0;
#X connect 9 1 7 0;
#X connect 10 0 1 0;
#X connect 11 0 2 0;
#X connect 12 0 0 0;
#X connect 14 0 13 0;
#X restore 32 38 pd init;
#X obj 182 346 loadbang;
#X msg 182 367 0;
#X text 203 58 salvare/caricare sample banks;
#N canvas 404 73 588 502 master 0;
#X obj 91 413 dac~, f 8;
#X obj 7 382 s~ mixOut;
#X obj 91 348 limiter, f 8;
#X obj 219 265 verb.oct~;
#X obj 496 27 loadbang;
#X obj 242 76 hsl 128 15 0 1 0 1 empty empty 'roomsize' 20 8 0 10 -262144
-260097 -1 11430 0;
#X obj 252 119 hsl 128 15 0 2.4 0 1 empty empty damp 20 8 0 10 -262144
-260097 -1 10583 0;
#X floatatom 248 97 5 0 0 0 - - -, f 5;
#X floatatom 258 139 5 0 0 0 - - -, f 5;
#X obj 273 212 hsl 128 15 0 1 0 1 empty empty wet 20 8 0 10 -262144
-260097 -1 12700 0;
#X obj 262 162 hsl 128 15 0 1 0 1 empty empty dry 20 8 0 10 -262144
-260097 -1 0 0;
#X floatatom 284 235 5 0 0 0 - - -, f 5;
#X floatatom 267 186 5 0 0 0 - - -, f 5;
#X obj 219 27 catch~ toReverbLeft;
#X obj 229 47 catch~ toReverbRight;
#X obj 34 222 catch~ toMasterLeft;
#X obj 80 244 catch~ toMasterRight;
#X obj 203 307 hip~ 200;
#X obj 270 314 hip~ 200;
#X floatatom 308 274 5 0 0 0 - - -, f 5;
#X msg 427 196 1;
#X msg 426 60 0.9;
#X msg 426 103 2;
#X obj 174 402 s~ recordLeft;
#X obj 173 380 s~ recordRight;
#X obj 40 444 monitor /masterMonitor;
#X connect 2 0 1 0;
#X connect 2 0 0 0;
#X connect 2 0 23 0;
#X connect 2 0 25 0;
#X connect 2 1 1 0;
#X connect 2 1 0 1;
#X connect 2 1 24 0;
#X connect 2 1 25 0;
#X connect 3 0 17 0;
#X connect 3 1 18 0;
#X connect 4 0 22 0;
#X connect 4 0 21 0;
#X connect 4 0 20 0;
#X connect 5 0 7 0;
#X connect 5 0 3 2;
#X connect 6 0 8 0;
#X connect 6 0 3 3;
#X connect 9 0 11 0;
#X connect 9 0 3 5;
#X connect 10 0 12 0;
#X connect 10 0 3 4;
#X connect 13 0 3 0;
#X connect 14 0 3 1;
#X connect 15 0 2 0;
#X connect 16 0 2 1;
#X connect 17 0 2 0;
#X connect 18 0 2 1;
#X connect 19 0 17 1;
#X connect 19 0 18 1;
#X connect 20 0 9 0;
#X connect 21 0 5 0;
#X connect 22 0 6 0;
#X restore 32 140 pd master;
#X text 213 367 1 to log messages toGUI;
#X obj 408 364 loadbang;
#X msg 408 385 \; pd dsp 1;
#X obj 344 238 loadbang;
#X obj 344 305 s monitors;
#X obj 344 283 tgl 15 0 empty empty empty 17 7 0 10 -262144 -1 -1 0
1;
#X msg 344 261 1;
#X obj 414 238 loadbang;
#X obj 414 283 tgl 15 0 empty empty empty 17 7 0 10 -262144 -1 -1 0
1;
#X msg 414 261 1;
#X obj 414 305 s timerSwitch;
#N canvas 29 48 719 514 session 0;
#X obj 151 76 tgl 15 0 empty empty empty 17 7 0 10 -262144 -1 -1 0
1;
#X obj 145 95 sel 0 1;
#X obj 164 199 f;
#X obj 164 220 t b f;
#X msg 145 248 start;
#X msg 100 248 stop;
#X obj 206 279 r~ recordRight;
#X obj 248 300 r~ recordLeft;
#X obj 191 349 writesf~ 2;
#X obj 190 173 s toGUI;
#X obj 145 54 r \$0-recordSession;
#X obj 179 122 r \$0-sessionIndex;
#X msg 100 413 saved session-\$1.wav;
#X obj 100 390 v \$0-sessionIndex;
#X obj 100 367 b;
#X obj 100 434 print;
#X msg 190 149 list /sessionName session-\$1.wav;
#X msg 191 248 open sessions/session-\$1.wav;
#X connect 1 0 5 0;
#X connect 1 1 2 0;
#X connect 2 0 3 0;
#X connect 3 0 4 0;
#X connect 3 1 17 0;
#X connect 4 0 8 0;
#X connect 5 0 8 0;
#X connect 5 0 14 0;
#X connect 6 0 8 0;
#X connect 7 0 8 1;
#X connect 10 0 0 0;
#X connect 10 0 1 0;
#X connect 11 0 16 0;
#X connect 11 0 2 1;
#X connect 12 0 15 0;
#X connect 13 0 12 0;
#X connect 14 0 13 0;
#X connect 16 0 9 0;
#X connect 17 0 8 0;
#X restore 35 182 pd session;
#X obj 62 342 route /timerPos /playPos /gridPulse /inputMonitor /sampleMonitor
/masterMonitor, f 15;
#X text 204 85 hann window salva click tra fine e inizio;
#N canvas 63 27 586 608 main 0;
#X obj 40 24 receive fromGUI;
#X obj 40 45 list trim;
#X obj 129 170 s \$0-recordSession;
#X obj 209 152 s \$0-sessionIndex;
#N canvas 0 9 362 617 gridSelect 0;
#X obj 21 22 inlet;
#X obj 21 171 unpack f f f;
#X obj 57 234 spigot;
#X obj 112 376 s toGUI;
#X text 152 412 remember current;
#X obj 21 573 s sampleSelect;
#N canvas 88 37 453 624 playback 0;
#X obj 31 556 s toGUI;
#X obj 31 20 inlet;
#X obj 168 66 tabread /sampleLoop;
#X obj 168 126 tabread /sampleVolume;
#X obj 168 186 tabread /sampleReverse;
#X obj 168 306 tabread /sampleSpeed;
#X obj 168 366 tabread /randomSpeed;
#X obj 168 426 tabread /samplePan;
#X obj 168 246 tabread /samplePingpong;
#X msg 168 150 list /sampleVolume \$1;
#X msg 168 210 list /sampleReverse \$1;
#X msg 168 270 list /samplePingpong \$1;
#X msg 168 390 list /randomSpeed \$1;
#X msg 168 450 list /samplePan \$1;
#X msg 168 90 list /sampleLoop set \$1;
#X msg 168 330 list /sampleSpeed \$1;
#X connect 1 0 2 0;
#X connect 1 0 3 0;
#X connect 1 0 4 0;
#X connect 1 0 5 0;
#X connect 1 0 6 0;
#X connect 1 0 7 0;
#X connect 1 0 8 0;
#X connect 2 0 14 0;
#X connect 3 0 9 0;
#X connect 4 0 10 0;
#X connect 5 0 15 0;
#X connect 6 0 12 0;
#X connect 7 0 13 0;
#X connect 8 0 11 0;
#X connect 9 0 0 0;
#X connect 10 0 0 0;
#X connect 11 0 0 0;
#X connect 12 0 0 0;
#X connect 13 0 0 0;
#X connect 14 0 0 0;
#X connect 15 0 0 0;
#X restore 138 471 pd playback;
#N canvas 523 141 397 531 record 0;
#X obj 53 383 s toGUI;
#X obj 53 32 inlet;
#X obj 133 71 tabread /sampleRec;
#X obj 133 191 tabread /sourceAll;
#X obj 133 131 tabread /sourceMic;
#X msg 133 155 list /sourceMic \$1;
#X msg 133 215 list /sourceAll \$1;
#X msg 133 95 list /sampleRec set \$1;
#X obj 133 251 tabread /sampleLength;
#X msg 133 275 list /timerTot \$1;
#X obj 133 311 tabread /sourceTracks;
#X msg 133 361 list /sourceTracks \$1;
#N canvas 0 50 450 495 sourceTracks 0;
#X obj 95 43 inlet;
#X floatatom 273 265 5 0 0 0 - - -, f 5;
#X obj 273 244 expr $f1|$f2|$f3;
#X obj 310 98 tgl 15 0 empty empty empty 17 7 0 10 -262144 -1 -1 0
1;
#X obj 310 118 sel 1;
#X msg 310 139 2;
#X obj 350 98 tgl 15 0 empty empty empty 17 7 0 10 -262144 -1 -1 0
1;
#X obj 350 118 sel 1;
#X obj 273 112 tgl 15 0 empty empty empty 17 7 0 10 -262144 -1 -1 0
1;
#X msg 350 139 4;
#X obj 306 192 t b f;
#X obj 350 160 t b f;
#X connect 2 0 1 0;
#X connect 3 0 4 0;
#X connect 4 0 5 0;
#X connect 4 1 10 0;
#X connect 5 0 10 0;
#X connect 6 0 7 0;
#X connect 7 0 9 0;
#X connect 7 1 11 0;
#X connect 8 0 2 0;
#X connect 9 0 11 0;
#X connect 10 0 2 0;
#X connect 10 1 2 1;
#X connect 11 0 2 0;
#X connect 11 1 2 2;
#X restore 133 332 pd sourceTracks;
#X connect 1 0 2 0;
#X connect 1 0 3 0;
#X connect 1 0 4 0;
#X connect 1 0 8 0;
#X connect 1 0 10 0;
#X connect 2 0 7 0;
#X connect 3 0 6 0;
#X connect 4 0 5 0;
#X connect 5 0 0 0;
#X connect 6 0 0 0;
#X connect 7 0 0 0;
#X connect 8 0 9 0;
#X connect 9 0 0 0;
#X connect 10 0 12 0;
#X restore 138 491 pd record;
#N canvas 0 50 404 508 delay 0;
#X obj 45 444 s toGUI;
#X obj 45 25 inlet;
#X obj 167 67 tabread /delayOn;
#X obj 167 127 tabread /delayTime;
#X obj 167 187 tabread /delayFeedback;
#X obj 167 247 tabread /delayLevel;
#X obj 167 307 tabread /delayRandom;
#X obj 167 367 tabread /delayGlide;
#X msg 167 91 list /delayOn \$1;
#X msg 167 151 list /delayTime \$1;
#X msg 167 211 list /delayFeedback \$1;
#X msg 167 271 list /delayLevel \$1;
#X msg 167 331 list /delayRandom \$1;
#X msg 167 391 list /delayGlide \$1;
#X connect 1 0 2 0;
#X connect 1 0 3 0;
#X connect 1 0 4 0;
#X connect 1 0 5 0;
#X connect 1 0 6 0;
#X connect 1 0 7 0;
#X connect 2 0 8 0;
#X connect 3 0 9 0;
#X connect 4 0 10 0;
#X connect 5 0 11 0;
#X connect 6 0 12 0;
#X connect 7 0 13 0;
#X connect 8 0 0 0;
#X connect 9 0 0 0;
#X connect 10 0 0 0;
#X connect 11 0 0 0;
#X connect 12 0 0 0;
#X connect 13 0 0 0;
#X restore 138 511 pd delay;
#N canvas 104 11 343 504 filter 0;
#X obj 63 444 s toGUI;
#X obj 63 22 inlet;
#X obj 148 74 tabread /filterActive;
#X obj 148 134 tabread /filterFreq;
#X obj 147 254 tabread /filterBW;
#X obj 147 314 tabread /filterRandom;
#X obj 147 194 tabread /filterRate;
#X obj 147 374 tabread /filterGlide;
#X msg 148 99 list /filterActive \$1;
#X msg 147 159 list /filterFreq \$1;
#X msg 147 219 list /filterRate \$1;
#X msg 147 279 list /filterBW \$1;
#X msg 147 339 list /filterRandom \$1;
#X msg 147 399 list /filterGlide \$1;
#X connect 1 0 2 0;
#X connect 1 0 3 0;
#X connect 1 0 4 0;
#X connect 1 0 5 0;
#X connect 1 0 6 0;
#X connect 1 0 7 0;
#X connect 2 0 8 0;
#X connect 3 0 9 0;
#X connect 4 0 11 0;
#X connect 5 0 12 0;
#X connect 6 0 10 0;
#X connect 7 0 13 0;
#X connect 8 0 0 0;
#X connect 9 0 0 0;
#X connect 10 0 0 0;
#X connect 11 0 0 0;
#X connect 12 0 0 0;
#X connect 13 0 0 0;
#X restore 138 531 pd filter;
#N canvas 0 50 404 337 fx 0;
#X obj 65 271 s toGUI;
#X obj 65 74 inlet;
#X obj 154 100 tabread /sendReverb;
#X obj 154 160 tabread /pitchShifter;
#X msg 154 125 list /sendReverb \$1;
#X msg 154 185 list /pitchShifter \$1;
#X obj 154 220 tabread /overDrive;
#X msg 154 245 list /overDrive \$1;
#X connect 1 0 2 0;
#X connect 1 0 3 0;
#X connect 1 0 6 0;
#X connect 2 0 4 0;
#X connect 3 0 5 0;
#X connect 4 0 0 0;
#X connect 5 0 0 0;
#X connect 6 0 7 0;
#X connect 7 0 0 0;
#X restore 138 551 pd fx;
#X obj 21 200 xyToN;
#X obj 57 455 - 1;
#X obj 84 414 v selected;
#X text 87 454 recall sample values;
#X floatatom 65 255 5 0 0 0 - - -, f 5;
#X text 121 334 display sample number;
#X msg 112 354 list /currentLabel \$1;
#X obj 57 275 t f f;
#X obj 21 92 spigot 1;
#X obj 66 72 == 0;
#X obj 66 46 r \$0-sourceTracks;
#X msg 34 119 list /gridSelect clear;
#X obj 34 140 s toGUI;
#X text 82 94 select sample when /sourceTracks is off;
#X connect 0 0 19 0;
#X connect 1 0 11 0;
#X connect 1 1 11 1;
#X connect 1 2 2 1;
#X connect 2 0 15 0;
#X connect 2 0 18 0;
#X connect 11 0 5 0;
#X connect 11 0 2 0;
#X connect 12 0 6 0;
#X connect 12 0 7 0;
#X connect 12 0 8 0;
#X connect 12 0 9 0;
#X connect 12 0 10 0;
#X connect 17 0 3 0;
#X connect 18 0 12 0;
#X connect 18 1 17 0;
#X connect 18 1 13 0;
#X connect 19 0 1 0;
#X connect 19 0 22 0;
#X connect 20 0 19 1;
#X connect 21 0 20 0;
#X connect 22 0 23 0;
#X restore 50 194 pd gridSelect;
#X obj 121 356 sel 1;
#X msg 193 387 list /sourceAll 0;
#X obj 52 270 s \$0-sourceAll;
#X obj 40 356 sel 1;
#X obj 193 501 s toGUI;
#X msg 40 447 list /sourceTracks 0;
#X msg 121 417 list /sourceMic 0;
#X text 184 355 source logic;
#X obj 181 312 s \$0-sourceTracks;
#X obj 40 226 route /sourceAll /sourceTracks /speedPitch /driveSwitch
;
#N canvas 0 50 560 346 speedPitch 0;
#X obj 238 31 inlet;
#X obj 126 272 s toGUI;
#X obj 101 88 tgl 15 0 empty empty empty 17 7 0 10 -262144 -1 -1 0
1;
#X obj 126 117 == 0;
#X msg 126 152 list /sampleSpeed enable \$1;
#X msg 106 172 list /pitchShifter enable \$1;
#X msg 86 192 list /pitchReset enable \$1;
#X obj 101 18 loadbang;
#X msg 101 39 0;
#X msg 379 216 list /speedLabel speed;
#X msg 379 186 list /speedLabel pitch;
#X obj 238 52 sel 0 1;
#X connect 0 0 2 0;
#X connect 0 0 11 0;
#X connect 2 0 3 0;
#X connect 2 0 5 0;
#X connect 2 0 6 0;
#X connect 3 0 4 0;
#X connect 4 0 1 0;
#X connect 5 0 1 0;
#X connect 6 0 1 0;
#X connect 7 0 8 0;
#X connect 8 0 2 0;
#X connect 9 0 1 0;
#X connect 10 0 1 0;
#X connect 11 0 9 0;
#X connect 11 1 10 0;
#X restore 203 281 pd speedPitch;
#N canvas 0 50 450 300 driveSwitch 0;
#X obj 168 26 inlet;
#X obj 123 178 s toGUI;
#X obj 37 21 loadbang;
#X msg 37 42 0;
#X msg 37 103 list /overDrive enable \$1;
#X obj 168 47 sel 0 1;
#X msg 237 101 list /gainLabel drive;
#X msg 237 131 list /gainLabel gain;
#X connect 0 0 4 0;
#X connect 0 0 5 0;
#X connect 2 0 3 0;
#X connect 3 0 4 0;
#X connect 4 0 1 0;
#X connect 5 0 7 0;
#X connect 5 1 6 0;
#X connect 6 0 1 0;
#X connect 7 0 1 0;
#X restore 285 261 pd driveSwitch;
#X obj 289 131 s recDelay;
#X obj 50 76 route /gridSelect /recordSession /sessionIndex /recDelay
/recLength, f 67;
#X obj 369 111 s recLength;
#X connect 0 0 1 0;
#X connect 1 0 14 0;
#X connect 1 0 18 0;
#X connect 5 0 6 0;
#X connect 5 0 11 0;
#X connect 6 0 9 0;
#X connect 8 0 10 0;
#X connect 8 0 11 0;
#X connect 10 0 9 0;
#X connect 11 0 9 0;
#X connect 14 0 7 0;
#X connect 14 0 8 0;
#X connect 14 1 5 0;
#X connect 14 1 13 0;
#X connect 14 2 15 0;
#X connect 14 3 16 0;
#X connect 18 0 4 0;
#X connect 18 1 2 0;
#X connect 18 2 3 0;
#X connect 18 3 17 0;
#X connect 18 4 19 0;
#X restore 32 116 pd main router;
#X obj 32 229 samplePlayer 1;
#X obj 212 229 samplePlayer 7;
#X obj 32 269 samplePlayer 3;
#X obj 32 249 samplePlayer 2;
#X obj 212 269 samplePlayer 9;
#X obj 212 249 samplePlayer 8;
#X obj 122 269 samplePlayer 6;
#X obj 122 249 samplePlayer 5;
#X obj 122 229 samplePlayer 4;
#X connect 1 0 7 0;
#X connect 3 0 4 1;
#X connect 4 0 2 0;
#X connect 7 0 25 0;
#X connect 9 0 10 0;
#X connect 10 0 3 0;
#X connect 14 0 15 0;
#X connect 16 0 19 0;
#X connect 18 0 17 0;
#X connect 19 0 18 0;
#X connect 20 0 22 0;
#X connect 21 0 23 0;
#X connect 22 0 21 0;
#X connect 25 6 4 0;
