#N canvas 450 161 481 351 10;
#X obj 191 227 v selected;
#X obj 53 94 t f b;
#X obj 53 309 tabwrite \$1;
#X obj 53 22 inlet value;
#X obj 236 184 == 0;
#X text 251 206 < right arg not received;
#X obj 191 206 spigot 1;
#X obj 215 22 inlet sampleNumber;
#X obj 125 73 loadbang;
#X text 157 94 set 2nd argument by default;
#X obj 125 94 f \$2;
#X obj 125 115 == 0;
#X obj 80 139 spigot 1;
#X obj 169 262 - 1;
#X connect 0 0 13 0;
#X connect 1 0 2 0;
#X connect 1 1 12 0;
#X connect 3 0 1 0;
#X connect 4 0 6 1;
#X connect 6 0 0 0;
#X connect 7 0 4 0;
#X connect 7 0 13 0;
#X connect 8 0 10 0;
#X connect 10 0 11 0;
#X connect 10 0 13 0;
#X connect 11 0 12 1;
#X connect 12 0 6 0;
#X connect 13 0 2 1;
