#N canvas 0 50 450 300 10;
#X obj 130 149 == \$1;
#X obj 97 174 spigot;
#X obj 130 127 v selected;
#X obj 97 105 t a b;
#X obj 97 68 inlet;
#X obj 97 215 s toGUI;
#X connect 0 0 1 1;
#X connect 1 0 5 0;
#X connect 2 0 0 0;
#X connect 3 0 1 0;
#X connect 3 1 2 0;
#X connect 4 0 3 0;
