#N canvas 495 135 448 300 10;
#X obj 154 142 inlet~;
#X obj 220 49 inlet;
#X obj 63 233 outlet~;
#X obj 205 233 outlet~;
#X obj 205 188 *~;
#X obj 63 98 == 0;
#X obj 220 100 pack \$1 10;
#X obj 220 121 line~;
#X obj 63 123 pack \$1 10;
#X obj 63 144 line~;
#X obj 63 188 *~;
#X obj 63 40 loadbang;
#X msg 63 61 0;
#X text 262 58 1 >> output to left;
#X text 262 38 0 >> output to left;
#X connect 0 0 4 0;
#X connect 0 0 10 1;
#X connect 1 0 5 0;
#X connect 1 0 6 0;
#X connect 4 0 3 0;
#X connect 5 0 8 0;
#X connect 6 0 7 0;
#X connect 7 0 4 1;
#X connect 8 0 9 0;
#X connect 9 0 10 0;
#X connect 10 0 2 0;
#X connect 11 0 12 0;
#X connect 12 0 5 0;
