#N canvas 0 50 450 300 10;
#X obj 99 110 inlet~;
#X obj 256 34 inlet;
#X obj 99 218 outlet~;
#X obj 241 218 outlet~;
#X obj 241 173 *~;
#X obj 176 80 == 0;
#X obj 256 85 pack \$1 10;
#X obj 256 106 line~;
#X obj 176 105 pack \$1 10;
#X obj 176 126 line~;
#X obj 99 173 *~;
#X obj 133 17 loadbang;
#X msg 133 38 0;
#X connect 0 0 4 0;
#X connect 0 0 10 0;
#X connect 1 0 5 0;
#X connect 1 0 6 0;
#X connect 4 0 3 0;
#X connect 5 0 8 0;
#X connect 6 0 7 0;
#X connect 7 0 4 1;
#X connect 8 0 9 0;
#X connect 9 0 10 1;
#X connect 10 0 2 0;
#X connect 11 0 12 0;
#X connect 12 0 5 0;
