#N canvas 351 103 450 300 10;
#X obj 80 37 inlet~;
#X obj 194 37 inlet~;
#X obj 209 64 inlet;
#X obj 80 203 *~;
#X obj 194 203 *~;
#X obj 95 119 == 0;
#X obj 140 260 outlet~;
#X obj 209 138 pack \$1 10;
#X obj 209 159 line~;
#X obj 95 142 pack \$1 10;
#X obj 95 163 line~;
#X connect 0 0 3 0;
#X connect 1 0 4 0;
#X connect 2 0 7 0;
#X connect 2 0 5 0;
#X connect 3 0 6 0;
#X connect 4 0 6 0;
#X connect 5 0 9 0;
#X connect 7 0 8 0;
#X connect 8 0 4 1;
#X connect 9 0 10 0;
#X connect 10 0 3 1;
