#N canvas 0 50 645 478 10;
#X obj 173 36 inlet~;
#X obj 170 427 outlet~;
#X obj 343 190 max~ 0;
#X obj 69 124 min~ 0;
#X obj 368 28 loadbang;
#X msg 368 52 1;
#X obj 68 257 max~ -1;
#X obj 344 289 min~ 1;
#X obj 267 41 inlet drive;
#X obj 430 41 inlet gate;
#X obj 290 110 line~;
#X obj 68 168 expr~ pow($v1+1 \, $v2*($v2-$v1))-1;
#X obj 344 211 expr~ 1-pow(1-$v1 \, $v2*($v2+$v1));
#X obj 290 83 pack f 10;
#X obj 430 80 pack f 10;
#X obj 430 101 line~;
#X obj 68 236 expr~ -pow(-$v1 \, $v2);
#X obj 344 268 expr~ pow($v1 \, $v2);
#X connect 0 0 2 0;
#X connect 0 0 3 0;
#X connect 2 0 12 0;
#X connect 3 0 11 0;
#X connect 4 0 5 0;
#X connect 5 0 14 0;
#X connect 5 0 13 0;
#X connect 6 0 1 0;
#X connect 7 0 1 0;
#X connect 8 0 13 0;
#X connect 9 0 14 0;
#X connect 10 0 11 1;
#X connect 10 0 12 1;
#X connect 11 0 16 0;
#X connect 12 0 17 0;
#X connect 13 0 10 0;
#X connect 14 0 15 0;
#X connect 15 0 16 1;
#X connect 15 0 17 1;
#X connect 16 0 6 0;
#X connect 17 0 7 0;
